<?xml version="1.0" encoding="UTF-8"?>
<svg version="1.1" xmlns="http://www.w3.org/2000/svg" width="500" height="500">
<path d="M0 0 C0.99 0.66 1.98 1.32 3 2 C3 2.66 3 3.32 3 4 C3.66 4 4.32 4 5 4 C6.234375 5.2578125 6.234375 5.2578125 7.75 7.125 C10.23288837 10.08536691 12.82382122 12.83557424 15.609375 15.5078125 C16.2477832 16.12382324 16.88619141 16.73983398 17.54394531 17.37451172 C18.84092201 18.61806826 20.14753832 19.85165358 21.46386719 21.07470703 C22.06360352 21.65333496 22.66333984 22.23196289 23.28125 22.828125 C24.10206055 23.6001123 24.10206055 23.6001123 24.93945312 24.38769531 C26 26 26 26 25.76733398 28.06445312 C24.77098797 30.57766701 23.35753936 32.2347791 21.5625 34.25 C20.94503906 34.95640625 20.32757813 35.6628125 19.69140625 36.390625 C18 38 18 38 16 38 C15.58427734 38.87785156 15.58427734 38.87785156 15.16015625 39.7734375 C12.93092288 44.05176417 10.35392726 48.01367133 5.78125 49.9296875 C0.42111212 51.23398772 -3.60818872 51.28288059 -8.578125 48.6171875 C-11.4060362 46.7732571 -14.21217878 44.90406293 -17 43 C-17.89589844 42.41476563 -18.79179687 41.82953125 -19.71484375 41.2265625 C-23.51166153 38.575388 -25.64333293 36.98083445 -27.25 32.5625 C-25.2177722 26.77065077 -20.33516292 23.77198073 -15 21 C-12.13671875 20.77734375 -12.13671875 20.77734375 -10 21 C-9.67 19.68 -9.34 18.36 -9 17 C-10.32 16.67 -11.64 16.34 -13 16 C-13.391875 16.78375 -13.78375 17.5675 -14.1875 18.375 C-16.24274669 21.35156418 -17.59679258 21.98823563 -21 23 C-21 23.66 -21 24.32 -21 25 C-22.875 26.6875 -22.875 26.6875 -26 28 C-28.41796875 27.828125 -28.41796875 27.828125 -31.0625 27.4375 C-34.99232939 26.88403512 -34.99232939 26.88403512 -38.625 28.375 C-40.10920626 31.20848468 -40.05118136 31.94709892 -39.8125 35 C-39.46248019 41.56287141 -43.14688771 46.91752212 -47 52 C-48.485 52.495 -48.485 52.495 -50 53 C-52.16789104 51.76120512 -54.01781313 50.49934648 -56 49 C-56.78890625 48.41992188 -57.5778125 47.83984375 -58.390625 47.2421875 C-63.17614111 43.64552602 -63.17614111 43.64552602 -65 42 C-65 41.34 -65 40.68 -65 40 C-65.66 40 -66.32 40 -67 40 C-67.84716797 38.37548828 -67.84716797 38.37548828 -68 36 C-66.21770292 33.78205601 -64.49460372 31.93755511 -62.4453125 29.9921875 C-61.86917206 29.42549347 -61.29303162 28.85879944 -60.69943237 28.27493286 C-58.85268368 26.46284408 -56.98966553 24.66863066 -55.125 22.875 C-53.27100263 21.07091609 -51.4204862 19.26336399 -49.57199097 17.4536438 C-48.41962836 16.32774183 -47.26340954 15.20577092 -46.10305786 14.08810425 C-43.17943216 11.33192593 -43.17943216 11.33192593 -41 8 C-40.34 8 -39.68 8 -39 8 C-39 7.34 -39 6.68 -39 6 C-38.34 6 -37.68 6 -37 6 C-37 5.34 -37 4.68 -37 4 C-36.34 4 -35.68 4 -35 4 C-35 3.34 -35 2.68 -35 2 C-34.34 2 -33.68 2 -33 2 C-33 1.34 -33 0.68 -33 0 C-22.89991317 -8.50533628 -10.16173989 -7.37990612 0 0 Z " fill="#4FA366" transform="translate(266,158)"/>
<path d="M0 0 C3.10834892 1.34257324 5.09809215 3.0670292 7.55859375 5.390625 C8.39519531 6.17050781 9.23179687 6.95039063 10.09375 7.75390625 C11.28291016 8.90439453 11.28291016 8.90439453 12.49609375 10.078125 C13.24632812 10.77035156 13.9965625 11.46257812 14.76953125 12.17578125 C17.03760846 14.6747713 16.9975034 16.80167416 17.49609375 20.078125 C18.48609375 20.738125 19.47609375 21.398125 20.49609375 22.078125 C21.20385742 24.10595703 21.20385742 24.10595703 21.6640625 26.5859375 C21.83486328 27.49085938 22.00566406 28.39578125 22.18164062 29.328125 C22.34728516 30.276875 22.51292969 31.225625 22.68359375 32.203125 C22.86083984 33.12867188 23.03808594 34.05421875 23.22070312 35.0078125 C25.80186145 49.11947345 25.80186145 49.11947345 22.49609375 54.078125 C22.80827015 56.72444787 22.80827015 56.72444787 23.49609375 59.078125 C24.79546875 58.85125 26.09484375 58.624375 27.43359375 58.390625 C32.58586182 57.8798398 37.35157835 58.39360519 42.43359375 59.203125 C43.17923584 59.30794189 43.92487793 59.41275879 44.69311523 59.52075195 C48.33892901 60.16334896 50.14336279 60.63944595 52.5 63.5703125 C53.49609375 66.078125 53.49609375 66.078125 53.49609375 68.078125 C54.98109375 68.573125 54.98109375 68.573125 56.49609375 69.078125 C56.52501324 73.36977762 56.54286493 77.66140536 56.55859375 81.953125 C56.56697266 83.17644531 56.57535156 84.39976562 56.58398438 85.66015625 C56.58720703 86.82675781 56.59042969 87.99335938 56.59375 89.1953125 C56.59898682 90.27409668 56.60422363 91.35288086 56.60961914 92.46435547 C56.49609375 95.078125 56.49609375 95.078125 55.49609375 97.078125 C54.0209988 97.24441963 52.54000878 97.35842267 51.05859375 97.453125 C50.23488281 97.52273438 49.41117187 97.59234375 48.5625 97.6640625 C39.25951797 95.88642262 32.27429212 87.28512378 25.93359375 80.828125 C25.02029297 79.91804688 24.10699219 79.00796875 23.16601562 78.0703125 C16.49609375 71.34551468 16.49609375 71.34551468 16.49609375 69.078125 C15.83609375 69.078125 15.17609375 69.078125 14.49609375 69.078125 C14.49609375 68.418125 14.49609375 67.758125 14.49609375 67.078125 C13.83609375 67.078125 13.17609375 67.078125 12.49609375 67.078125 C12.49609375 66.418125 12.49609375 65.758125 12.49609375 65.078125 C11.90747559 64.81926514 11.31885742 64.56040527 10.71240234 64.29370117 C8.32785009 62.9858486 6.87724707 61.61985553 5.03515625 59.62890625 C4.07996094 58.60313477 4.07996094 58.60313477 3.10546875 57.55664062 C2.450625 56.84185547 1.79578125 56.12707031 1.12109375 55.390625 C0.15042969 54.34745117 0.15042969 54.34745117 -0.83984375 53.28320312 C-10.38947523 42.97306672 -15.92885044 36.89957315 -15.69921875 22.28515625 C-15.16371771 13.49222924 -10.72031069 8.53717898 -5.07421875 2.10546875 C-2.50390625 0.078125 -2.50390625 0.078125 0 0 Z " fill="#183F52" transform="translate(196.50390625,197.921875)"/>
<path d="M0 0 C3.51759358 6.20829016 4.12495166 13.75233769 2.3203125 20.56640625 C1.60602655 22.73987635 0.84433191 24.87409287 0 27 C-0.66 27 -1.32 27 -2 27 C-2.22558594 27.71800781 -2.45117188 28.43601563 -2.68359375 29.17578125 C-4.28511589 32.6116878 -6.32216971 34.58122903 -9.0625 37.1875 C-12.46904813 40.26744837 -12.46904813 40.26744837 -15 44 C-15.66 44 -16.32 44 -17 44 C-17 44.66 -17 45.32 -17 46 C-17.66 46 -18.32 46 -19 46 C-19 46.66 -19 47.32 -19 48 C-19.66 48 -20.32 48 -21 48 C-21 48.66 -21 49.32 -21 50 C-22.71484375 51.65625 -22.71484375 51.65625 -24.9375 53.5 C-27.92045179 55.88926999 -27.92045179 55.88926999 -30 59 C-30.66 59 -31.32 59 -32 59 C-32 59.66 -32 60.32 -32 61 C-32.66 61 -33.32 61 -34 61 C-34.25885986 61.58193115 -34.51771973 62.1638623 -34.78442383 62.76342773 C-36.98825967 66.81832634 -40.44920794 69.81836792 -43.6875 73.0625 C-44.38294922 73.78244141 -45.07839844 74.50238281 -45.79492188 75.24414062 C-49.95048283 79.42298204 -53.36607355 82.17871812 -59 84 C-59.66 84 -60.32 84 -61 84 C-61.12368591 80.06754915 -61.21437336 76.13585202 -61.2746582 72.2019043 C-61.31214374 70.20646445 -61.37567535 68.21156948 -61.43945312 66.21679688 C-61.45556641 64.96318359 -61.47167969 63.70957031 -61.48828125 62.41796875 C-61.51446533 61.26063232 -61.54064941 60.1032959 -61.56762695 58.91088867 C-61 56 -61 56 -58.59448242 54.28637695 C-57.73830322 53.86187256 -56.88212402 53.43736816 -56 53 C-55.34 52.01 -54.68 51.02 -54 50 C-51.9163691 50.14151828 -49.83310062 50.28837936 -47.75 50.4375 C-46.58984375 50.51871094 -45.4296875 50.59992188 -44.234375 50.68359375 C-41.69022624 50.93247787 -39.44046752 51.28114942 -37 52 C-37.33 51.01 -37.66 50.02 -38 49 C-43.28 48.67 -48.56 48.34 -54 48 C-54 46.68 -54 45.36 -54 44 C-53.19353027 43.37706055 -52.38706055 42.75412109 -51.55615234 42.11230469 C-48.78278609 40.23517746 -48.78278609 40.23517746 -48.26806641 37.28613281 C-48.21312012 36.26874023 -48.15817383 35.25134766 -48.1015625 34.203125 C-48.01390625 33.0790625 -47.92625 31.955 -47.8359375 30.796875 C-47.6962654 28.44831456 -47.56335757 26.09934124 -47.4375 23.75 C-46.88160637 16.79338829 -45.85918874 12.56908698 -40.96240234 7.47949219 C-37.27025488 4.69591249 -33.18742035 3.70854738 -28.7265625 2.74609375 C-27.7365625 2.53146484 -26.7465625 2.31683594 -25.7265625 2.09570312 C-24.70304687 1.87849609 -23.67953125 1.66128906 -22.625 1.4375 C-21.10132813 1.10588867 -21.10132813 1.10588867 -19.546875 0.76757812 C-16.70192586 0.1560988 -13.85352759 -0.43003401 -11 -1 C-9.93797363 -1.22018799 -9.93797363 -1.22018799 -8.85449219 -1.44482422 C-5.28720869 -2.0926429 -2.9249289 -2.30303981 0 0 Z " fill="#1A8584" transform="translate(316,210)"/>
<path d="M0 0 C3.10834892 1.34257324 5.09809215 3.0670292 7.55859375 5.390625 C8.39519531 6.17050781 9.23179687 6.95039063 10.09375 7.75390625 C11.28291016 8.90439453 11.28291016 8.90439453 12.49609375 10.078125 C13.24632812 10.77035156 13.9965625 11.46257812 14.76953125 12.17578125 C17.03760846 14.6747713 16.9975034 16.80167416 17.49609375 20.078125 C18.48609375 20.738125 19.47609375 21.398125 20.49609375 22.078125 C21.20385742 24.10595703 21.20385742 24.10595703 21.6640625 26.5859375 C21.83486328 27.49085938 22.00566406 28.39578125 22.18164062 29.328125 C22.34728516 30.276875 22.51292969 31.225625 22.68359375 32.203125 C22.86083984 33.12867188 23.03808594 34.05421875 23.22070312 35.0078125 C24.21679836 40.45364592 24.68487549 45.54486713 24.49609375 51.078125 C22.89068716 50.28897579 21.28681359 49.49670735 19.68359375 48.703125 C18.79027344 48.26226562 17.89695313 47.82140625 16.9765625 47.3671875 C14.49609375 46.078125 14.49609375 46.078125 11.49609375 44.078125 C8.0630221 43.83541675 8.0630221 43.83541675 4.30859375 43.953125 C3.03628906 43.97117188 1.76398438 43.98921875 0.453125 44.0078125 C-0.52269531 44.03101563 -1.49851563 44.05421875 -2.50390625 44.078125 C-2.99890625 46.553125 -2.99890625 46.553125 -3.50390625 49.078125 C-9.49550001 44.33197488 -14.30076888 39.95526965 -15.50390625 32.078125 C-16.27263906 20.53234949 -15.20017943 13.80296626 -7.62890625 5.015625 C-3.31677482 0.10348751 -3.31677482 0.10348751 0 0 Z " fill="#1F8982" transform="translate(196.50390625,197.921875)"/>
<path d="M0 0 C0.89203125 0.38027344 1.7840625 0.76054687 2.703125 1.15234375 C3.37859375 1.45269531 4.0540625 1.75304687 4.75 2.0625 C4.42 3.0525 4.09 4.0425 3.75 5.0625 C2.945625 5.35125 2.14125 5.64 1.3125 5.9375 C-1.48928441 6.84194219 -1.48928441 6.84194219 -2.5625 9.6875 C-2.9028125 10.863125 -2.9028125 10.863125 -3.25 12.0625 C-3.91 12.0625 -4.57 12.0625 -5.25 12.0625 C-5.25 12.7225 -5.25 13.3825 -5.25 14.0625 C-6.76212735 15.27877635 -8.27485815 16.49432499 -9.79296875 17.703125 C-11.78246358 19.55927567 -12.39909016 21.50977049 -13.25 24.0625 C-14.75 26.375 -14.75 26.375 -16.25 28.0625 C-16.91 28.0625 -17.57 28.0625 -18.25 28.0625 C-18.25 28.7225 -18.25 29.3825 -18.25 30.0625 C-18.91 30.0625 -19.57 30.0625 -20.25 30.0625 C-20.50885986 30.64443115 -20.76771973 31.2263623 -21.03442383 31.82592773 C-23.23825967 35.88082634 -26.69920794 38.88086792 -29.9375 42.125 C-30.63294922 42.84494141 -31.32839844 43.56488281 -32.04492188 44.30664062 C-36.20048283 48.48548204 -39.61607355 51.24121812 -45.25 53.0625 C-45.91 53.0625 -46.57 53.0625 -47.25 53.0625 C-47.37368591 49.13004915 -47.46437336 45.19835202 -47.5246582 41.2644043 C-47.56214374 39.26896445 -47.62567535 37.27406948 -47.68945312 35.27929688 C-47.70556641 34.02568359 -47.72167969 32.77207031 -47.73828125 31.48046875 C-47.76446533 30.32313232 -47.79064941 29.1657959 -47.81762695 27.97338867 C-47.25 25.0625 -47.25 25.0625 -44.84448242 23.34887695 C-43.98830322 22.92437256 -43.13212402 22.49986816 -42.25 22.0625 C-41.59 21.0725 -40.93 20.0825 -40.25 19.0625 C-38.1663691 19.20401828 -36.08310062 19.35087936 -34 19.5 C-32.83984375 19.58121094 -31.6796875 19.66242188 -30.484375 19.74609375 C-27.94022624 19.99497787 -25.69046752 20.34364942 -23.25 21.0625 C-23.745 18.5875 -23.745 18.5875 -24.25 16.0625 C-25.9 16.0625 -27.55 16.0625 -29.25 16.0625 C-29.25 15.7325 -29.25 15.4025 -29.25 15.0625 C-27.6 15.0625 -25.95 15.0625 -24.25 15.0625 C-24.064375 14.381875 -23.87875 13.70125 -23.6875 13 C-20.54150879 6.57123536 -14.05630209 0.94234331 -7.40234375 -1.66015625 C-4.46693425 -2.03840321 -2.69548907 -1.17040973 0 0 Z " fill="#144E5D" transform="translate(302.25,240.9375)"/>
<path d="M0 0 C3.078755 2.57610112 4.76249106 4.31228939 5.33203125 8.359375 C5.37170395 10.62432555 5.33024672 12.75904013 5 15 C2.88074396 17.11925604 -1.6196093 16.41831017 -4.5625 16.5625 C-5.36880859 16.60568359 -6.17511719 16.64886719 -7.00585938 16.69335938 C-9.00368805 16.79975262 -11.0018207 16.90040888 -13 17 C-11.02755834 20.99324234 -11.02755834 20.99324234 -7.1875 22.875 C-3.98452408 23.11353341 -3.98452408 23.11353341 -0.8125 22.4375 C2 22 2 22 5 24 C5.45375 23.175 5.9075 22.35 6.375 21.5 C6.91125 20.675 7.4475 19.85 8 19 C8.66 19 9.32 19 10 19 C10.89104412 16.26746469 11.31292392 14.81134822 11 12 C9.35208273 9.20992012 7.50357457 6.75442697 5.46875 4.234375 C4.9840625 3.49703125 4.499375 2.7596875 4 2 C4.33 1.01 4.66 0.02 5 -1 C11.14587738 -0.8794926 11.14587738 -0.8794926 13.578125 1.625 C14.80796624 3.37787717 15.94469135 5.13740456 17 7 C17.36351562 6.4225 17.72703125 5.845 18.1015625 5.25 C19.62698908 2.99706228 21.10048075 0.95085761 23 -1 C26.375 -1.5 26.375 -1.5 29 -1 C29 0.32 29 1.64 29 3 C28.34 3 27.68 3 27 3 C26.731875 3.70125 26.46375 4.4025 26.1875 5.125 C25 8 25 8 23.0625 10.8125 C21.65207494 13.84515762 21.65207494 13.84515762 22.921875 16.0546875 C23.83592946 17.45658002 24.79537992 18.8300725 25.80078125 20.16796875 C27 22 27 22 27 25 C27.66 25 28.32 25 29 25 C29 26.32 29 27.64 29 29 C26.375 29.5 26.375 29.5 23 29 C20.6317567 26.56775013 18.80488213 23.86733048 17 21 C16.56429687 21.5775 16.12859375 22.155 15.6796875 22.75 C10.76051188 28.88299817 10.76051188 28.88299817 6.75 29.5 C5.38875 29.2525 5.38875 29.2525 4 29 C2.00116467 29 0.00219138 29.02341663 -1.99609375 29.0703125 C-3.13175781 29.08835937 -4.26742187 29.10640625 -5.4375 29.125 C-6.57058594 29.14820313 -7.70367187 29.17140625 -8.87109375 29.1953125 C-11.87369016 29.00788451 -13.48269643 28.57099535 -16 27 C-16 26.34 -16 25.68 -16 25 C-16.66 25 -17.32 25 -18 25 C-21.16564625 19.80834015 -20.59828252 13.86608713 -20 8 C-18.52455206 3.95392626 -15.64183193 1.23209054 -12 -1 C-7.64696228 -2.45101257 -4.24317156 -1.60512269 0 0 Z M-11.9375 6.375 C-13.18241645 7.95540186 -13.18241645 7.95540186 -13 10 C-7.44506076 11.02703748 -7.44506076 11.02703748 -2 10 C-2.33 8.35 -2.66 6.7 -3 5 C-7.74590563 4.56036392 -7.74590563 4.56036392 -11.9375 6.375 Z " fill="#88A66F" transform="translate(197,322)"/>
<path d="M0 0 C3.37137946 -0.2589066 6.63529236 -0.38499635 10 0 C12.2890625 1.96875 12.2890625 1.96875 13.625 4.5 C14.09164062 5.3353125 14.55828125 6.170625 15.0390625 7.03125 C15.35617188 7.6809375 15.67328125 8.330625 16 9 C16.144375 7.700625 16.28875 6.40125 16.4375 5.0625 C16.875 1.125 16.875 1.125 18 0 C20.33297433 -0.04092937 22.66705225 -0.04241723 25 0 C25.93378333 6.306743 26.15174853 12.44189169 26.125 18.8125 C26.13080078 20.22305664 26.13080078 20.22305664 26.13671875 21.66210938 C26.13542969 22.56380859 26.13414062 23.46550781 26.1328125 24.39453125 C26.13168457 25.20768799 26.13055664 26.02084473 26.12939453 26.85864258 C26 29 26 29 25 32 C21.9375 32.625 21.9375 32.625 18 32 C14.70538087 28.42705352 12.17041735 24.34083469 10 20 C9.93941406 20.78246094 9.87882813 21.56492187 9.81640625 22.37109375 C9.73261719 23.38300781 9.64882812 24.39492188 9.5625 25.4375 C9.48128906 26.44683594 9.40007812 27.45617187 9.31640625 28.49609375 C9 31 9 31 8 32 C4.5 32.125 4.5 32.125 1 32 C0 31 0 31 -0.11352539 28.04077148 C-0.10828857 26.74727783 -0.10305176 25.45378418 -0.09765625 24.12109375 C-0.0962413 23.4344313 -0.09482635 22.74776886 -0.09336853 22.04029846 C-0.08775479 19.83932199 -0.07520007 17.63844591 -0.0625 15.4375 C-0.05748676 13.94856917 -0.05292355 12.45963676 -0.04882812 10.97070312 C-0.03778093 7.31376925 -0.02050713 3.65689442 0 0 Z " fill="#138B92" transform="translate(149,319)"/>
<path d="M0 0 C0.66 0.433125 1.32 0.86625 2 1.3125 C2.70382812 1.69277344 3.40765625 2.07304687 4.1328125 2.46484375 C6 4.3125 6 4.3125 6.2421875 7.4296875 C6.12101562 8.66976562 5.99984375 9.90984375 5.875 11.1875 C5.81151367 11.84790283 5.74802734 12.50830566 5.68261719 13.1887207 C5.54451503 14.55714293 5.39530042 15.92448637 5.23535156 17.29052734 C5.01220886 19.20761017 4.82914726 21.12923416 4.6484375 23.05078125 C3.65247734 31.67267166 3.65247734 31.67267166 0.58203125 34.68359375 C-2 36.3125 -2 36.3125 -4.5625 36.1875 C-5.366875 35.89875 -6.17125 35.61 -7 35.3125 C-7.63035156 35.09722656 -8.26070312 34.88195312 -8.91015625 34.66015625 C-13.83797591 31.48240338 -16.11520048 24.64998536 -18 19.3125 C-18.48302485 15.06612769 -18.0812927 12.06246761 -16 8.3125 C-12.95718379 5.38081273 -9.71608221 3.29788349 -6 1.3125 C-4.91332031 0.70535156 -4.91332031 0.70535156 -3.8046875 0.0859375 C-2 -0.6875 -2 -0.6875 0 0 Z " fill="#1B8888" transform="translate(263,217.6875)"/>
<path d="M0 0 C4.47057585 3.61450814 5.31722668 6.31886026 5.9375 12 C6.18744566 18.31893868 5.73888017 22.0002878 1.5 26.875 C-2.53094221 29.98800488 -7.139706 29.61190752 -12 29 C-12.66 28.67 -13.32 28.34 -14 28 C-14 31.63 -14 35.26 -14 39 C-15.99954746 39.04254356 -18.00041636 39.04080783 -20 39 C-22.07997565 36.92002435 -21.28226839 32.49773474 -21.3515625 29.625 C-21.37471527 28.78533691 -21.39786804 27.94567383 -21.42172241 27.08056641 C-21.46942641 25.3018207 -21.5146525 23.52300711 -21.55761719 21.74414062 C-21.62471847 19.01146532 -21.70245086 16.27923513 -21.78125 13.546875 C-21.82616267 11.82293327 -21.87045446 10.09897523 -21.9140625 8.375 C-21.93796051 7.55209473 -21.96185852 6.72918945 -21.98648071 5.88134766 C-22.03012764 3.92137919 -22.02055374 1.96034665 -22 0 C-21 -1 -21 -1 -18.125 -1.0625 C-16.578125 -1.0315625 -16.578125 -1.0315625 -15 -1 C-12.1463862 -0.86712874 -12.1463862 -0.86712874 -10.05859375 -1.53515625 C-6.48303074 -2.34254145 -3.2895827 -1.39024031 0 0 Z M-12.671875 6.10546875 C-14.63456228 8.90518443 -14.36155453 11.18528412 -14.3125 14.5625 C-14.30863281 15.71878906 -14.30476562 16.87507813 -14.30078125 18.06640625 C-14.29945877 21.12140629 -14.29945877 21.12140629 -12 23 C-8.02524236 23.61829563 -6.4580898 23.31867116 -3.125 21 C-0.21122625 16.88643706 -0.44759446 14.97164984 -1 10 C-2.00875212 7.18990481 -2.33395417 6.33302292 -5 5 C-9.0485563 4.58361108 -9.0485563 4.58361108 -12.671875 6.10546875 Z " fill="#24364B" transform="translate(249,322)"/>
<path d="M0 0 C2.375 0.25 2.375 0.25 5 1 C7.5864235 4.34566395 7.8959853 8.85724937 8.625 12.9375 C8.7590625 13.64068359 8.893125 14.34386719 9.03125 15.06835938 C9.70527239 18.73765476 10.31667355 22.2687595 10 26 C9.2575 26.9590625 9.2575 26.9590625 8.5 27.9375 C6.70530705 29.94067851 6.70530705 29.94067851 7.1875 32.69921875 C6.94228788 37.01597376 5.0159524 39.53550762 2.5 42.875 C2.07074219 43.46796875 1.64148438 44.0609375 1.19921875 44.671875 C0.1453999 46.12380319 -0.92561516 47.56322345 -2 49 C-2.66 48.67 -3.32 48.34 -4 48 C-5.23477925 43.59553402 -5.93292336 39.0609862 -6.75 34.5625 C-6.99621094 33.29599609 -7.24242187 32.02949219 -7.49609375 30.72460938 C-7.71910156 29.51740234 -7.94210938 28.31019531 -8.171875 27.06640625 C-8.3790918 25.95209229 -8.58630859 24.83777832 -8.79980469 23.68969727 C-8.89890137 22.35829712 -8.89890137 22.35829712 -9 21 C-8.34 20.34 -7.68 19.68 -7 19 C-7.1546875 17.576875 -7.1546875 17.576875 -7.3125 16.125 C-7.58242121 10.07105292 -3.13889852 4.87650306 0 0 Z " fill="#29927B" transform="translate(227,198)"/>
<path d="M0 0 C1.19503055 0.65307172 2.38539824 1.31514079 3.5625 2 C3.5625 2.66 3.5625 3.32 3.5625 4 C4.2225 4 4.8825 4 5.5625 4 C8.12150834 8.79814064 8.23184766 13.70306361 7.5625 19 C5.87306233 23.90393528 3.20324523 26.73557963 -1.4375 29 C-6.57691219 29.83922047 -11.99869567 30.18876392 -16.76953125 27.86328125 C-21.70345771 23.90575287 -23.12208552 19.83873035 -23.8125 13.625 C-23.3386757 9.04469839 -22.27262482 5.66104353 -19.4375 2 C-13.31897134 -2.73820983 -6.94381676 -3.41699243 0 0 Z M-13.875 6.375 C-16.30479658 10.45705826 -16.18274166 14.37489197 -15.4375 19 C-14.07987846 21.77564845 -14.07987846 21.77564845 -11.4375 23 C-7.59718535 23.54861638 -5.39852671 23.54211763 -2 21.625 C0.42979658 17.54294174 0.30774166 13.62510803 -0.4375 9 C-1.79512154 6.22435155 -1.79512154 6.22435155 -4.4375 5 C-8.27781465 4.45138362 -10.47647329 4.45788237 -13.875 6.375 Z " fill="#132B44" transform="translate(293.4375,322)"/>
<path d="M0 0 C2.98215295 0.91666477 4.23192034 1.95488183 6.38500977 4.18286133 C7.0456543 4.85639648 7.70629883 5.52993164 8.38696289 6.22387695 C9.39726562 7.28445312 9.39726562 7.28445312 10.42797852 8.36645508 C11.12084961 9.07737305 11.8137207 9.78829102 12.52758789 10.52075195 C14.23293021 12.2731382 15.92823027 14.03416976 17.61547852 15.80395508 C17.12047852 17.28895508 17.12047852 17.28895508 16.61547852 18.80395508 C13.90222675 19.64641226 11.32491201 20.29994554 8.55297852 20.86645508 C7.0619758 21.19013396 5.57108979 21.51435095 4.08032227 21.83911133 C2.96729736 22.07355957 2.96729736 22.07355957 1.83178711 22.31274414 C-0.3301363 22.79190143 -2.46028644 23.34566881 -4.59936523 23.91723633 C-7.88202654 24.68623955 -10.54071308 25.02183864 -13.88452148 24.92895508 C-14.74045898 24.9109082 -15.59639648 24.89286133 -16.47827148 24.87426758 C-17.10733398 24.85106445 -17.73639648 24.82786133 -18.38452148 24.80395508 C-19.13061523 22.63208008 -19.13061523 22.63208008 -19.38452148 19.80395508 C-17.79467773 17.22583008 -17.79467773 17.22583008 -15.44702148 14.55395508 C-14.6181543 13.60520508 -13.78928711 12.65645508 -12.93530273 11.67895508 C-12.09354492 10.73020508 -11.25178711 9.78145508 -10.38452148 8.80395508 C-9.65620117 7.89645508 -8.92788086 6.98895508 -8.17749023 6.05395508 C-7.50331055 5.22895508 -6.82913086 4.40395508 -6.13452148 3.55395508 C-5.53124023 2.80629883 -4.92795898 2.05864258 -4.30639648 1.28833008 C-2.38452148 -0.19604492 -2.38452148 -0.19604492 0 0 Z " fill="#369A6F" transform="translate(294.384521484375,188.196044921875)"/>
<path d="M0 0 C2.6443002 1.08503566 4.87585337 2.33572749 7.2578125 3.90625 C8.93946616 5.17723493 8.93946616 5.17723493 11 5 C12.11988052 8.35964157 11.71980913 10.58090665 11 14 C11.33 14.66 11.66 15.32 12 16 C12.58265625 15.90460938 13.1653125 15.80921875 13.765625 15.7109375 C20.83851421 14.75454053 27.03977172 15.55294223 34 17 C33.01 17.33 32.02 17.66 31 18 C31 18.99 31 19.98 31 21 C25.83430559 22.79217969 22.48946087 23.12029814 17 22 C16.01 23.32 15.02 24.64 14 26 C14 25.34 14 24.68 14 24 C13.34 24 12.68 24 12 24 C11.87625 23.236875 11.7525 22.47375 11.625 21.6875 C11.11897208 18.79732864 11.11897208 18.79732864 9 16 C8.34 16 7.68 16 7 16 C6.67 17.65 6.34 19.3 6 21 C5.01 21 4.02 21 3 21 C3.66 22.65 4.32 24.3 5 26 C4.34 26 3.68 26 3 26 C3 25.34 3 24.68 3 24 C2.34 24 1.68 24 1 24 C1 23.34 1 22.68 1 22 C0.47019531 21.79890625 -0.05960938 21.5978125 -0.60546875 21.390625 C-4.07678778 19.37465506 -6.57283974 16.65540484 -9.3125 13.75 C-9.87517578 13.18925781 -10.43785156 12.62851563 -11.01757812 12.05078125 C-15.0047932 7.82443087 -15.0047932 7.82443087 -14.98046875 3.640625 C-12.83216552 -2.14524347 -5.2179214 -0.60034836 0 0 Z " fill="#1B606B" transform="translate(208,241)"/>
<path d="M0 0 C3.45519647 2.09110589 5.69181166 4.07543499 7 8 C7.2295082 14.54098361 7.2295082 14.54098361 6 17 C0.06 17 -5.88 17 -12 17 C-11.01 18.98 -10.02 20.96 -9 23 C-4.0655561 24.48964344 -0.70863258 23.95235985 4 22 C6 24 6 24 6 28 C1.30035658 30.93727714 -3.88855553 31.45540959 -9.1875 30.3125 C-13.54711193 28.27801443 -16.33301683 26.00047475 -19 22 C-19.57769643 16.38058931 -19.52925362 10.88546603 -18 5.4375 C-13.35949096 -0.21812039 -7.00887769 -2.52897648 0 0 Z M-11 8 C-11.33 9.32 -11.66 10.64 -12 12 C-8.37 12 -4.74 12 -1 12 C-0.67 10.68 -0.34 9.36 0 8 C-5.19549523 4.80277217 -5.85580158 4.3990611 -11 8 Z " fill="#2A4257" transform="translate(345,321)"/>
<path d="M0 0 C8.27021404 3.7591882 15.36118182 9.93904908 22.4375 15.5625 C20.99648828 19.14178719 19.29469199 20.63650774 16.0625 22.6875 C15.29164063 23.18507812 14.52078125 23.68265625 13.7265625 24.1953125 C9.35125033 26.80855356 6.65362081 28.00642518 1.4375 27.5625 C-1.82754818 25.38580121 -1.96543727 25.19426723 -2.73046875 21.640625 C-2.90126953 20.86203125 -3.07207031 20.0834375 -3.24804688 19.28125 C-3.49651367 18.05921875 -3.49651367 18.05921875 -3.75 16.8125 C-4.01586914 15.61367187 -4.01586914 15.61367187 -4.28710938 14.390625 C-5.19994409 10.10488363 -6.08132271 5.95564814 -5.5625 1.5625 C-2.5625 -0.4375 -2.5625 -0.4375 0 0 Z " fill="#329870" transform="translate(240.5625,196.4375)"/>
<path d="M0 0 C6.14587738 0.1205074 6.14587738 0.1205074 8.578125 2.625 C9.80796624 4.37787717 10.94469135 6.13740456 12 8 C12.54527344 7.13375 12.54527344 7.13375 13.1015625 6.25 C14.62698908 3.99706228 16.10048075 1.95085761 18 0 C21.375 -0.5 21.375 -0.5 24 0 C24 1.32 24 2.64 24 4 C23.34 4 22.68 4 22 4 C21.731875 4.70125 21.46375 5.4025 21.1875 6.125 C20 9 20 9 18.0625 11.8125 C16.65207494 14.84515762 16.65207494 14.84515762 17.921875 17.0546875 C18.83592946 18.45658002 19.79537992 19.8300725 20.80078125 21.16796875 C22 23 22 23 22 26 C22.66 26 23.32 26 24 26 C24 27.32 24 28.64 24 30 C21.375 30.5 21.375 30.5 18 30 C15.6317567 27.56775013 13.80488213 24.86733048 12 22 C11.63648438 22.5053125 11.27296875 23.010625 10.8984375 23.53125 C6.74099485 28.90394511 6.74099485 28.90394511 2.625 29.4375 C1.325625 29.2209375 1.325625 29.2209375 0 29 C0.66 28.01 1.32 27.02 2 26 C2.39013716 24.0103005 2.73202649 22.00980131 3 20 C3.66 20 4.32 20 5 20 C5.89104412 17.26746469 6.31292392 15.81134822 6 13 C4.35208273 10.20992012 2.50357457 7.75442697 0.46875 5.234375 C-0.0159375 4.49703125 -0.500625 3.7596875 -1 3 C-0.67 2.01 -0.34 1.02 0 0 Z " fill="#364960" transform="translate(202,321)"/>
<path d="M0 0 C3.74709664 -0.10555202 6.63642759 0.29624561 10 2 C13.46198825 6.89789198 17 12.88980618 17 19 C16.34 19 15.68 19 15 19 C14.67 20.32 14.34 21.64 14 23 C11.62279061 22.74292265 9.24923394 22.46982932 6.875 22.1875 C6.20984375 22.11724609 5.5446875 22.04699219 4.859375 21.97460938 C0.35945979 21.42314918 -3.06760451 20.23570772 -7 18 C-8.16073704 10.53811904 -4.18902831 5.90952207 0 0 Z " fill="#1D878C" transform="translate(234,235)"/>
<path d="M0 0 C1.7325 0.4640625 1.7325 0.4640625 3.5 0.9375 C4.49 0.2775 5.48 -0.3825 6.5 -1.0625 C12.82258065 -1.5141129 12.82258065 -1.5141129 16.5 0.9375 C16.17 3.2475 15.84 5.5575 15.5 7.9375 C13.85 7.9375 12.2 7.9375 10.5 7.9375 C10.5 6.9475 10.5 5.9575 10.5 4.9375 C7.97636012 5.56283375 7.97636012 5.56283375 5.5 6.9375 C3.99773443 11.7198602 4.44456064 16.71720534 4.5390625 21.67382812 C4.59953535 26.7384293 4.59953535 26.7384293 3.5 28.9375 C1.50045254 28.98004356 -0.50041636 28.97830783 -2.5 28.9375 C-3.5 27.9375 -3.5 27.9375 -3.61352539 25.71264648 C-3.60828857 24.75430908 -3.60305176 23.79597168 -3.59765625 22.80859375 C-3.59282227 21.25688477 -3.59282227 21.25688477 -3.58789062 19.67382812 C-3.57951172 18.58521484 -3.57113281 17.49660156 -3.5625 16.375 C-3.55798828 15.28251953 -3.55347656 14.19003906 -3.54882812 13.06445312 C-3.53699826 10.35541505 -3.52051543 7.64648401 -3.5 4.9375 C-4.49 4.9375 -5.48 4.9375 -6.5 4.9375 C-6.5 3.2875 -6.5 1.6375 -6.5 -0.0625 C-3.5 -1.0625 -3.5 -1.0625 0 0 Z " fill="#223045" transform="translate(308.5,322.0625)"/>
<path d="M0 0 C2.31 0 4.62 0 7 0 C7 11.22 7 22.44 7 34 C8.98 34 10.96 34 13 34 C13 35.98 13 37.96 13 40 C11.5629191 40.05422947 10.12524538 40.09289723 8.6875 40.125 C7.88699219 40.14820313 7.08648437 40.17140625 6.26171875 40.1953125 C4 40 4 40 1 38 C-0.23180134 34.30459598 -0.12412112 30.89696622 -0.09765625 27.05078125 C-0.0962413 26.27816452 -0.09482635 25.50554779 -0.09336853 24.70951843 C-0.08777466 22.24380611 -0.07522333 19.77818485 -0.0625 17.3125 C-0.05748421 15.63997527 -0.05292144 13.96744912 -0.04882812 12.29492188 C-0.03780724 8.19657954 -0.02054684 4.09830521 0 0 Z " fill="#4E5C6E" transform="translate(258,311)"/>
<path d="M0 0 C1.19503055 0.65307172 2.38539824 1.31514079 3.5625 2 C3.5625 2.66 3.5625 3.32 3.5625 4 C4.2225 4 4.8825 4 5.5625 4 C8.15477518 8.86051596 7.74939553 13.65271133 7.5625 19 C7.2325 19 6.9025 19 6.5625 19 C6.5625 16.36 6.5625 13.72 6.5625 11 C5.5725 11.33 4.5825 11.66 3.5625 12 C2.9025 11.67 2.2425 11.34 1.5625 11 C1.5625 14.3 1.5625 17.6 1.5625 21 C0.2425 21.33 -1.0775 21.66 -2.4375 22 C-2.1075 21.01 -1.7775 20.02 -1.4375 19 C-1.34441456 17.33541327 -1.30753815 15.66718003 -1.3125 14 C-1.30992187 13.13375 -1.30734375 12.2675 -1.3046875 11.375 C-1.34155795 8.84988305 -1.34155795 8.84988305 -2.4375 6 C-3.87405854 5.91868537 -5.3119483 5.86066441 -6.75 5.8125 C-7.55050781 5.77769531 -8.35101563 5.74289062 -9.17578125 5.70703125 C-11.47253165 5.83185138 -11.47253165 5.83185138 -13.1875 7.1875 C-14.82094378 9.55599348 -14.93959901 11.3323248 -15.125 14.1875 C-15.19074219 15.08855469 -15.25648438 15.98960937 -15.32421875 16.91796875 C-15.36160156 17.60503906 -15.39898437 18.29210937 -15.4375 19 C-15.7675 19 -16.0975 19 -16.4375 19 C-17.0975 15.7 -17.7575 12.4 -18.4375 9 C-18.4375 9.99 -18.4375 10.98 -18.4375 12 C-19.7575 12 -21.0775 12 -22.4375 12 C-22.4375 13.65 -22.4375 15.3 -22.4375 17 C-22.7675 17 -23.0975 17 -23.4375 17 C-23.92352356 11.1677173 -23.08951298 6.71590472 -19.4375 2 C-13.31897134 -2.73820983 -6.94381676 -3.41699243 0 0 Z " fill="#465567" transform="translate(293.4375,322)"/>
<path d="M0 0 C6.08285888 2.76493585 11.84770436 6.67369487 16.4375 11.5625 C15.4475 11.5625 14.4575 11.5625 13.4375 11.5625 C13.1075 10.9025 12.7775 10.2425 12.4375 9.5625 C10.45840602 9.53563447 8.47921029 9.51616625 6.5 9.5 C4.84677734 9.48259766 4.84677734 9.48259766 3.16015625 9.46484375 C0.52302366 9.24987429 0.52302366 9.24987429 -0.5625 10.5625 C-0.47232004 12.75300021 -0.31583792 14.940966 -0.125 17.125 C-0.02316406 18.32253906 0.07867187 19.52007812 0.18359375 20.75390625 C0.26738281 21.68074219 0.35117188 22.60757813 0.4375 23.5625 C2.7475 24.2225 5.0575 24.8825 7.4375 25.5625 C7.4375 24.9025 7.4375 24.2425 7.4375 23.5625 C9.4175 23.2325 11.3975 22.9025 13.4375 22.5625 C11.38454566 25.64193151 10.78015205 26.35543121 7.4375 27.5625 C3.33890754 27.89707898 1.92554095 27.88786063 -1.5625 25.5625 C-2.27026367 23.77832031 -2.27026367 23.77832031 -2.73046875 21.640625 C-2.90126953 20.86203125 -3.07207031 20.0834375 -3.24804688 19.28125 C-3.49651367 18.05921875 -3.49651367 18.05921875 -3.75 16.8125 C-4.01586914 15.61367187 -4.01586914 15.61367187 -4.28710938 14.390625 C-5.19994409 10.10488363 -6.08132271 5.95564814 -5.5625 1.5625 C-2.5625 -0.4375 -2.5625 -0.4375 0 0 Z " fill="#469973" transform="translate(240.5625,196.4375)"/>
<path d="M0 0 C0.99 0.33 1.98 0.66 3 1 C3.12117187 2.19238281 3.24234375 3.38476562 3.3671875 4.61328125 C3.53602673 6.17973408 3.70532132 7.74613788 3.875 9.3125 C3.95363281 10.09818359 4.03226563 10.88386719 4.11328125 11.69335938 C4.19707031 12.45068359 4.28085938 13.20800781 4.3671875 13.98828125 C4.44050293 14.68477783 4.51381836 15.38127441 4.58935547 16.09887695 C4.94706216 18.31766048 4.94706216 18.31766048 7 21 C6.68289062 21.54140625 6.36578125 22.0828125 6.0390625 22.640625 C4.81692026 25.4157149 4.59056564 27.73208098 4.375 30.75 C4.30023438 31.73484375 4.22546875 32.7196875 4.1484375 33.734375 C4.09945312 34.48203125 4.05046875 35.2296875 4 36 C2.35 36 0.7 36 -1 36 C-1.02929984 31.68751453 -1.04689903 27.37505507 -1.0625 23.0625 C-1.07087891 21.85013672 -1.07925781 20.63777344 -1.08789062 19.38867188 C-1.10565466 12.83374288 -0.88995726 6.49598725 0 0 Z " fill="#0B2339" transform="translate(230,324)"/>
<path d="M0 0 C-3 2 -3 2 -5.6875 1.625 C-6.450625 1.41875 -7.21375 1.2125 -8 1 C-8 0.34 -8 -0.32 -8 -1 C-12.24896524 -0.52789275 -14.08834382 -0.03297519 -17 3 C-18.98723268 3.70381157 -20.98777953 4.3711811 -23 5 C-23.99 5.66 -24.98 6.32 -26 7 C-26.33 6.34 -26.66 5.68 -27 5 C-27.66 5.66 -28.32 6.32 -29 7 C-30.32 7 -31.64 7 -33 7 C-33.268125 7.969375 -33.53625 8.93875 -33.8125 9.9375 C-34.204375 10.948125 -34.59625 11.95875 -35 13 C-35.99 13.33 -36.98 13.66 -38 14 C-38.66 13.34 -39.32 12.68 -40 12 C-39.67 11.34 -39.34 10.68 -39 10 C-38.34 10 -37.68 10 -37 10 C-37 9.34 -37 8.68 -37 8 C-36.34 8 -35.68 8 -35 8 C-35 7.34 -35 6.68 -35 6 C-34.34 6 -33.68 6 -33 6 C-33 5.34 -33 4.68 -33 4 C-32.34 4 -31.68 4 -31 4 C-31 3.34 -31 2.68 -31 2 C-22.17807708 -5.42898772 -9.76958014 -5.76154726 0 0 Z " fill="#5EA75F" transform="translate(264,156)"/>
<path d="M0 0 C2.475 0.495 2.475 0.495 5 1 C5 3.97 5 6.94 5 10 C3.21142578 10.02126953 3.21142578 10.02126953 1.38671875 10.04296875 C-0.17972627 10.0898683 -1.74613135 10.1381157 -3.3125 10.1875 C-4.09818359 10.19330078 -4.88386719 10.19910156 -5.69335938 10.20507812 C-7.9064343 10.28983419 -9.86321861 10.41239928 -12 11 C-14.11870348 13.38552991 -14.11870348 13.38552991 -15 16 C-17.41486943 13.58513057 -17.2961925 12.87292211 -17.3125 9.5625 C-17.32925781 8.78003906 -17.34601563 7.99757813 -17.36328125 7.19140625 C-16.92353251 4.53872837 -16.04371546 3.677033 -14 2 C-13.67 2.99 -13.34 3.98 -13 5 C-8.71 5 -4.42 5 0 5 C0 3.35 0 1.7 0 0 Z " fill="#70964F" transform="translate(196,328)"/>
<path d="M0 0 C1.134375 0.020625 2.26875 0.04125 3.4375 0.0625 C4.37128333 6.369243 4.58924853 12.50439169 4.5625 18.875 C4.56636719 19.81537109 4.57023438 20.75574219 4.57421875 21.72460938 C4.57292969 22.62630859 4.57164062 23.52800781 4.5703125 24.45703125 C4.56918457 25.27018799 4.56805664 26.08334473 4.56689453 26.92114258 C4.4375 29.0625 4.4375 29.0625 3.4375 32.0625 C1.1275 32.0625 -1.1825 32.0625 -3.5625 32.0625 C-3.5625 31.7325 -3.5625 31.4025 -3.5625 31.0625 C-1.5825 31.0625 0.3975 31.0625 2.4375 31.0625 C2.37744409 28.95754036 2.28864641 26.85338565 2.1875 24.75 C2.14109375 23.57824219 2.0946875 22.40648437 2.046875 21.19921875 C1.75900367 17.96780468 1.75900367 17.96780468 -0.609375 16.33203125 C-1.25390625 15.91308594 -1.8984375 15.49414062 -2.5625 15.0625 C-2.5625 14.0725 -2.5625 13.0825 -2.5625 12.0625 C-3.5525 11.7325 -4.5425 11.4025 -5.5625 11.0625 C-5.42207123 9.41619672 -5.27500671 7.77045821 -5.125 6.125 C-5.04378906 5.20847656 -4.96257812 4.29195313 -4.87890625 3.34765625 C-4.36077956 -0.39436982 -3.98403999 0.06989544 0 0 Z " fill="#659C7A" transform="translate(170.5625,318.9375)"/>
<path d="M0 0 C2.99496977 1.28288469 4.92189404 2.89548199 7.29296875 5.125 C8.08316406 5.85847656 8.87335938 6.59195313 9.6875 7.34765625 C10.27917969 7.91355469 10.87085938 8.47945312 11.48046875 9.0625 C11.15046875 9.7225 10.82046875 10.3825 10.48046875 11.0625 C8.10546875 10.875 8.10546875 10.875 5.48046875 10.0625 C4.16796875 7.5 4.16796875 7.5 3.48046875 5.0625 C-0.00762316 5.83280122 -0.00762316 5.83280122 -3.51953125 7.0625 C-3.84953125 8.0525 -4.17953125 9.0425 -4.51953125 10.0625 C-5.15890625 10.35125 -5.79828125 10.64 -6.45703125 10.9375 C-9.24000574 12.45548609 -9.47569929 14.15468239 -10.51953125 17.0625 C-11.17953125 17.3925 -11.83953125 17.7225 -12.51953125 18.0625 C-12.9875977 20.39994294 -13.34622919 22.75989079 -13.64453125 25.125 C-13.81210938 26.41535156 -13.9796875 27.70570313 -14.15234375 29.03515625 C-14.27351562 30.03417969 -14.3946875 31.03320312 -14.51953125 32.0625 C-14.84953125 32.0625 -15.17953125 32.0625 -15.51953125 32.0625 C-16.08289593 18.37482474 -14.02554548 12.26889236 -5.08984375 2.08984375 C-2.51953125 0.0625 -2.51953125 0.0625 0 0 Z " fill="#55A184" transform="translate(196.51953125,197.9375)"/>
<path d="M0 0 C2.9375 0.8125 2.9375 0.8125 6 2 C6.33 2.99 6.66 3.98 7 5 C7.67546875 5.41894531 8.3509375 5.83789062 9.046875 6.26953125 C11 8 11 8 11.390625 11.13671875 C11.32101563 12.89435547 11.32101563 12.89435547 11.25 14.6875 C11.21390625 15.86699219 11.1778125 17.04648437 11.140625 18.26171875 C11.07101563 19.61716797 11.07101563 19.61716797 11 21 C7.6875 21.25 7.6875 21.25 4 21 C2 19.25 2 19.25 1 17 C1.125 14.875 1.125 14.875 2 13 C2.99 12.34 3.98 11.68 5 11 C4.01 10.34 3.02 9.68 2 9 C2 8.01 2 7.02 2 6 C1.36893571 3.98848259 0.70626239 1.98636298 0 0 Z " fill="#1C8884" transform="translate(162,329)"/>
<path d="M0 0 C1.02480469 0.23976563 1.02480469 0.23976563 2.0703125 0.484375 C3.875 1.25 3.875 1.25 5.875 4.25 C4.225 4.25 2.575 4.25 0.875 4.25 C0.545 3.59 0.215 2.93 -0.125 2.25 C-2.44656597 1.84270772 -4.7818787 1.50561323 -7.125 1.25 C-6.45631686 4.36332248 -6.45631686 4.36332248 -4.0625 5.4375 C-3.423125 5.705625 -2.78375 5.97375 -2.125 6.25 C-3.094375 6.559375 -4.06375 6.86875 -5.0625 7.1875 C-7.96565792 7.94523342 -7.96565792 7.94523342 -9.125 9.25 C-9.35927778 11.26594582 -9.53836124 13.288474 -9.6875 15.3125 C-9.77128906 16.41722656 -9.85507813 17.52195312 -9.94140625 18.66015625 C-10.00199219 19.51480469 -10.06257812 20.36945313 -10.125 21.25 C-10.455 21.25 -10.785 21.25 -11.125 21.25 C-11.455 15.64 -11.785 10.03 -12.125 4.25 C-12.785 4.25 -13.445 4.25 -14.125 4.25 C-15.21334175 11.56658317 -15.44957962 18.86276728 -15.6875 26.25 C-15.73068359 27.50167969 -15.77386719 28.75335938 -15.81835938 30.04296875 C-15.92378017 33.11188523 -16.02590342 36.18087389 -16.125 39.25 C-16.455 39.25 -16.785 39.25 -17.125 39.25 C-17.29222525 33.85670134 -17.45282368 28.46326249 -17.60717773 23.06958008 C-17.66067534 21.2332625 -17.71601046 19.39699753 -17.77319336 17.56079102 C-17.85488864 14.92736153 -17.93005738 12.29381595 -18.00390625 9.66015625 C-18.03094131 8.83411392 -18.05797638 8.00807159 -18.08583069 7.15699768 C-18.13783011 5.1886419 -18.13687837 3.21900669 -18.125 1.25 C-17.125 0.25 -17.125 0.25 -14.25 0.1875 C-12.703125 0.2184375 -12.703125 0.2184375 -11.125 0.25 C-8.27177427 0.38633133 -8.27177427 0.38633133 -6.1953125 -0.296875 C-3.81708275 -0.81739321 -2.34910547 -0.58950936 0 0 Z " fill="#687384" transform="translate(245.125,320.75)"/>
<path d="M0 0 C6.27 0 12.54 0 19 0 C19 0.33 19 0.66 19 1 C13.06 1 7.12 1 1 1 C1.99 2.98 2.98 4.96 4 7 C8.9344439 8.48964344 12.29136742 7.95235985 17 6 C19 8 19 8 19 12 C15.30137876 14.31163828 11.30214984 14.94208644 7 15 C3.44252026 14.14356969 1.5843015 13.5843015 -1 11 C-0.34 11 0.32 11 1 11 C0.67 7.37 0.34 3.74 0 0 Z " fill="#4D5B6B" transform="translate(332,337)"/>
<path d="M0 0 C0.33 0 0.66 0 1 0 C1.33 3.63 1.66 7.26 2 11 C2 10.34 2 9.68 2 9 C2.32033957 6.99787771 2.65259077 4.99760305 3 3 C3.99 3.66 4.98 4.32 6 5 C6.66 4.67 7.32 4.34 8 4 C9.76682351 3.7951509 11.53892575 3.63439805 13.3125 3.5 C16.93979251 3.22288079 20.47865468 2.94733538 24 2 C24.33 1.34 24.66 0.68 25 0 C25 2.31 25 4.62 25 7 C18.73 7 12.46 7 6 7 C6.33 10.63 6.66 14.26 7 18 C3 17 3 17 1.26171875 15.359375 C-0.43126546 12.19354695 -0.29452584 9.81752789 -0.1875 6.25 C-0.16042969 5.07953125 -0.13335937 3.9090625 -0.10546875 2.703125 C-0.07066406 1.81109375 -0.03585937 0.9190625 0 0 Z " fill="#152A42" transform="translate(326,330)"/>
<path d="M0 0 C2.64 0 5.28 0 8 0 C8.33 0.66 8.66 1.32 9 2 C9.99 2.33 10.98 2.66 12 3 C15 4 15 4 16 6 C16.07033769 7.87379605 16.0843022 9.75001102 16.0625 11.625 C16.05347656 12.62789063 16.04445312 13.63078125 16.03515625 14.6640625 C16.02355469 15.43492187 16.01195312 16.20578125 16 17 C14.02 17.33 12.04 17.66 10 18 C9.34 14.04 8.68 10.08 8 6 C5.36 5.34 2.72 4.68 0 4 C0 2.68 0 1.36 0 0 Z " fill="#293F5C" transform="translate(238,322)"/>
<path d="M0 0 C6.07328688 -0.50610724 9.77228537 0.95842058 15 4 C15 4.66 15 5.32 15 6 C15.66 6 16.32 6 17 6 C19.59227518 10.86051596 19.18689553 15.65271133 19 21 C18.67 21 18.34 21 18 21 C18 18.36 18 15.72 18 13 C17.01 13.33 16.02 13.66 15 14 C14.34 13.67 13.68 13.34 13 13 C13 16.3 13 19.6 13 23 C11.68 23.33 10.36 23.66 9 24 C9.33 23.01 9.66 22.02 10 21 C10.09308544 19.33541327 10.12996185 17.66718003 10.125 16 C10.12757813 15.13375 10.13015625 14.2675 10.1328125 13.375 C10.09594205 10.84988305 10.09594205 10.84988305 9 8 C6.03 7.67 3.06 7.34 0 7 C0 6.67 0 6.34 0 6 C2.64 6 5.28 6 8 6 C8 5.01 8 4.02 8 3 C5.36 2.34 2.72 1.68 0 1 C0 0.67 0 0.34 0 0 Z " fill="#394B5F" transform="translate(282,320)"/>
<path d="M0 0 C-0.99 0.33 -1.98 0.66 -3 1 C-3 1.99 -3 2.98 -3 4 C-8.16569441 5.79217969 -11.51053913 6.12029814 -17 5 C-17.99 6.32 -18.98 7.64 -20 9 C-20 8.34 -20 7.68 -20 7 C-20.66 7 -21.32 7 -22 7 C-22.144375 6.21625 -22.28875 5.4325 -22.4375 4.625 C-22.87798925 2.03578982 -22.87798925 2.03578982 -24 0 C-15.69329062 -2.62317138 -8.39084728 -1.43716752 0 0 Z " fill="#134859" transform="translate(242,258)"/>
<path d="M0 0 C3.46755141 2.0537429 5.69790271 4.09370812 7 8 C7.03954234 10.33299825 7.04401732 12.66708189 7 15 C6.34 13.68 5.68 12.36 5 11 C4.29488281 11.32742188 3.58976562 11.65484375 2.86328125 11.9921875 C-0.23867167 13.08400722 -2.54006053 13.20385396 -5.8125 13.125 C-7.27623047 13.09792969 -7.27623047 13.09792969 -8.76953125 13.0703125 C-9.50558594 13.04710937 -10.24164063 13.02390625 -11 13 C-11 12.34 -11 11.68 -11 11 C-7.7 11 -4.4 11 -1 11 C-1.50980961 6.96621634 -1.50980961 6.96621634 -4.0625 5.75 C-4.701875 5.5025 -5.34125 5.255 -6 5 C-5.01 4.67 -4.02 4.34 -3 4 C-3 3.34 -3 2.68 -3 2 C-6.3 2 -9.6 2 -13 2 C-9.20149307 -1.79850693 -4.8964612 -1.36731369 0 0 Z " fill="#3B4B60" transform="translate(345,321)"/>
<path d="M0 0 C5 1 5 1 6.2109375 2.56640625 C7.31495426 5.97136885 7.99672493 9.42108291 8.625 12.9375 C8.7590625 13.64068359 8.893125 14.34386719 9.03125 15.06835938 C9.7082969 18.75411981 10.16137372 22.25172849 10 26 C6.13033611 22.13033611 5.5573777 19.12529782 4.875 13.8125 C4.70742187 12.54019531 4.53984375 11.26789063 4.3671875 9.95703125 C4.24601563 8.98121094 4.12484375 8.00539062 4 7 C1.63721264 6.77011494 1.63721264 6.77011494 -0.625 9.5 C-1.800625 10.7375 -1.800625 10.7375 -3 12 C-3.66 11.01 -4.32 10.02 -5 9 C-3.35 6.03 -1.7 3.06 0 0 Z " fill="#5A9F82" transform="translate(227,198)"/>
<path d="M0 0 C2.475 0.495 2.475 0.495 5 1 C5 7.6 5 14.2 5 21 C3.35 21 1.7 21 0 21 C0 14.07 0 7.14 0 0 Z " fill="#0F2036" transform="translate(306,329)"/>
<path d="M0 0 C1.125 3.75 1.125 3.75 0 6 C0.99 6.66 1.98 7.32 3 8 C-4.33333333 8 -11.66666667 8 -19 8 C-19.33 6.68 -19.66 5.36 -20 4 C-19.01 4 -18.02 4 -17 4 C-16.071875 3.690625 -15.14375 3.38125 -14.1875 3.0625 C-11.07332598 2.02444199 -8.26979359 1.29064832 -5 1 C-4.01 1.66 -3.02 2.32 -2 3 C-1.34 2.01 -0.68 1.02 0 0 Z " fill="#789A5C" transform="translate(204,343)"/>
<path d="M0 0 C3.44130064 1.61443734 5.78567401 4.01432728 8.34375 6.75 C9.09688477 7.53020508 9.09688477 7.53020508 9.86523438 8.32617188 C11.09654127 9.6043857 12.3151907 10.89477147 13.53125 12.1875 C11.55125 13.1775 11.55125 13.1775 9.53125 14.1875 C9.098125 13.56875 8.665 12.95 8.21875 12.3125 C6.53384517 9.9677755 6.53384517 9.9677755 3.53125 8.1875 C3.53125 7.5275 3.53125 6.8675 3.53125 6.1875 C2.21125 5.5275 0.89125 4.8675 -0.46875 4.1875 C-0.79875 5.1775 -1.12875 6.1675 -1.46875 7.1875 C-3.46875 7.85416667 -5.46875 8.52083333 -7.46875 9.1875 C-7.79875 10.1775 -8.12875 11.1675 -8.46875 12.1875 C-9.78875 11.8575 -11.10875 11.5275 -12.46875 11.1875 C-10.92516965 9.31422288 -9.36230176 7.46619645 -7.78125 5.625 C-7.12866211 4.82545898 -7.12866211 4.82545898 -6.46289062 4.00976562 C-3.18093094 0.24158969 -3.18093094 0.24158969 0 0 Z " fill="#5BA17C" transform="translate(294.46875,187.8125)"/>
<path d="M0 0 C3.4375 1.3125 3.4375 1.3125 7 3 C8 6 8 6 7.0625 8.1875 C6.5365625 9.0846875 6.5365625 9.0846875 6 10 C5.34 8.68 4.68 7.36 4 6 C2.05000871 6.19471111 2.05000871 6.19471111 0 7 C-0.309375 7.639375 -0.61875 8.27875 -0.9375 8.9375 C-2 11 -2 11 -4.625 12.25 C-5.40875 12.4975 -6.1925 12.745 -7 13 C-7 13.66 -7 14.32 -7 15 C-8.875 16.75 -8.875 16.75 -12 18 C-15.42383493 17.66023012 -18.6820164 16.89553344 -22 16 C-19.66785852 14.79371992 -17.50357861 13.8345262 -15 13 C-14.34 13.33 -13.68 13.66 -13 14 C-13 14.66 -13 15.32 -13 16 C-12.34 16 -11.68 16 -11 16 C-11 15.34 -11 14.68 -11 14 C-10.01 14 -9.02 14 -8 14 C-7.67 12.35 -7.34 10.7 -7 9 C-6.01 8.67 -5.02 8.34 -4 8 C-3.67 6.35 -3.34 4.7 -3 3 C-2.01 2.67 -1.02 2.34 0 2 C0 1.34 0 0.68 0 0 Z " fill="#6CA572" transform="translate(252,168)"/>
<path d="M0 0 C1.65 0 3.3 0 5 0 C5.66 1.98 6.32 3.96 7 6 C5.75 7.5625 5.75 7.5625 4 9 C1.8125 8.6875 1.8125 8.6875 0 8 C0 9.32 0 10.64 0 12 C-0.99 12 -1.98 12 -3 12 C-3.33 13.98 -3.66 15.96 -4 18 C-5.65 18 -7.3 18 -9 18 C-8.01 16.515 -8.01 16.515 -7 15 C-6.60986284 13.0103005 -6.26797351 11.00980131 -6 9 C-5.34 9 -4.68 9 -4 9 C-2.47700477 6.06279492 -1.19899698 3.0831351 0 0 Z " fill="#132A46" transform="translate(211,332)"/>
<path d="M0 0 C6.14587738 0.1205074 6.14587738 0.1205074 8.578125 2.625 C9.80796624 4.37787717 10.94469135 6.13740456 12 8 C12.66 7.67 13.32 7.34 14 7 C12.63016497 10.16115776 12.0109362 10.9927092 9 13 C8.01 14.485 8.01 14.485 7 16 C6.51080078 15.09507812 6.51080078 15.09507812 6.01171875 14.171875 C5.57472656 13.37265625 5.13773438 12.5734375 4.6875 11.75 C4.25824219 10.96109375 3.82898438 10.1721875 3.38671875 9.359375 C2.05888023 6.96061009 2.05888023 6.96061009 0.26953125 4.890625 C-0.14941406 4.26671875 -0.56835938 3.6428125 -1 3 C-0.67 2.01 -0.34 1.02 0 0 Z " fill="#415163" transform="translate(202,321)"/>
<path d="M0 0 C0.8971875 0.7115625 0.8971875 0.7115625 1.8125 1.4375 C2.51375 1.81648437 3.215 2.19546875 3.9375 2.5859375 C5.8125 4.4375 5.8125 4.4375 6.01953125 7.66015625 C5.82423828 9.56087891 5.82423828 9.56087891 5.625 11.5 C5.53134155 12.49785522 5.53134155 12.49785522 5.43579102 13.51586914 C5.2467269 15.49162488 5.0299466 17.46466627 4.8125 19.4375 C4.62469858 21.41663809 4.43714501 23.39579973 4.25 25.375 C4.10684648 26.72945258 3.96220813 28.08375623 3.8125 29.4375 C3.4825 29.4375 3.1525 29.4375 2.8125 29.4375 C1.90766363 24.07260405 1.68946338 18.93432543 1.75 13.5 C1.75451172 12.72076172 1.75902344 11.94152344 1.76367188 11.13867188 C1.77533092 9.23824732 1.79326123 7.33786294 1.8125 5.4375 C-1.0246515 4.24154463 -1.0246515 4.24154463 -4.1875 3.4375 C-5.1775 4.0975 -6.1675 4.7575 -7.1875 5.4375 C-7.8475 4.7775 -8.5075 4.1175 -9.1875 3.4375 C-2.82079312 -0.7253468 -2.82079312 -0.7253468 0 0 Z " fill="#559794" transform="translate(263.1875,217.5625)"/>
<path d="M0 0 C-0.66 3.96 -1.32 7.92 -2 12 C-1.34 12.33 -0.68 12.66 0 13 C-0.66 13 -1.32 13 -2 13 C-2.33 13.66 -2.66 14.32 -3 15 C-4.7074998 13.71937515 -6.37373596 12.38232443 -8 11 C-8 10.34 -8 9.68 -8 9 C-8.66 9 -9.32 9 -10 9 C-10.8125 7.3125 -10.8125 7.3125 -11 5 C-7.32309177 0.09745569 -6.45729455 0 0 0 Z " fill="#56A275" transform="translate(209,189)"/>
<path d="M0 0 C1.0625 1.8125 1.0625 1.8125 2 4 C1.67 4.99 1.34 5.98 1 7 C0.34 7 -0.32 7 -1 7 C-1.22558594 7.71800781 -1.45117188 8.43601563 -1.68359375 9.17578125 C-3.28511589 12.6116878 -5.32216971 14.58122903 -8.0625 17.1875 C-11.46904813 20.26744837 -11.46904813 20.26744837 -14 24 C-14.66 24 -15.32 24 -16 24 C-16 24.66 -16 25.32 -16 26 C-16.66 26 -17.32 26 -18 26 C-18 26.66 -18 27.32 -18 28 C-18.66 28 -19.32 28 -20 28 C-20 28.66 -20 29.32 -20 30 C-22.5 31.625 -22.5 31.625 -25 33 C-24.40353695 29.65980694 -23.31705841 27.49529367 -21 25 C-20.01 25 -19.02 25 -18 25 C-18 24.34 -18 23.68 -18 23 C-17.34 23 -16.68 23 -16 23 C-15.773125 22.21625 -15.54625 21.4325 -15.3125 20.625 C-13.65618946 17.31237892 -12.35961714 17.25985643 -9 16 C-7.77472052 14.04978917 -7.77472052 14.04978917 -7 12 C-6.34 11.34 -5.68 10.68 -5 10 C-4.29289322 8.35008418 -3.62056011 6.68437744 -3 5 C-2.34 5 -1.68 5 -1 5 C-0.67 3.35 -0.34 1.7 0 0 Z " fill="#537B80" transform="translate(315,230)"/>
<path d="M0 0 C0.66 0.33 1.32 0.66 2 1 C0.68 1.33 -0.64 1.66 -2 2 C-2 2.99 -2 3.98 -2 5 C1.47147842 5.74957157 1.47147842 5.74957157 5 6 C5.99 5.34 6.98 4.68 8 4 C8.02892857 7.95831809 8.04677427 11.91660917 8.0625 15.875 C8.07087891 17.00292969 8.07925781 18.13085938 8.08789062 19.29296875 C8.09111328 20.36933594 8.09433594 21.44570313 8.09765625 22.5546875 C8.10289307 23.54968262 8.10812988 24.54467773 8.11352539 25.56982422 C8 28 8 28 7 30 C5.00045254 30.04254356 2.99958364 30.04080783 1 30 C0 29 0 29 -0.11352539 26.77514648 C-0.10828857 25.81680908 -0.10305176 24.85847168 -0.09765625 23.87109375 C-0.09282227 22.31938477 -0.09282227 22.31938477 -0.08789062 20.73632812 C-0.07951172 19.64771484 -0.07113281 18.55910156 -0.0625 17.4375 C-0.05798828 16.34501953 -0.05347656 15.25253906 -0.04882812 14.12695312 C-0.03699826 11.41791505 -0.02051543 8.70898401 0 6 C-0.99 6 -1.98 6 -3 6 C-3 4.35 -3 2.7 -3 1 C-2.01 0.67 -1.02 0.34 0 0 Z M1 8 C1 14.93 1 21.86 1 29 C2.65 29 4.3 29 6 29 C6 22.4 6 15.8 6 9 C4.35 8.67 2.7 8.34 1 8 Z " fill="#777F8B" transform="translate(305,321)"/>
<path d="M0 0 C0.9075 0.103125 1.815 0.20625 2.75 0.3125 C2.75 1.6325 2.75 2.9525 2.75 4.3125 C2.09 4.3125 1.43 4.3125 0.75 4.3125 C0.481875 5.034375 0.21375 5.75625 -0.0625 6.5 C-1.23982498 9.28840126 -2.64145884 11.75345724 -4.25 14.3125 C-7.25 13.3125 -7.25 13.3125 -9.25 12.3125 C-6.5 0.625 -6.5 0.625 0 0 Z " fill="#2D4356" transform="translate(223.25,320.6875)"/>
<path d="M0 0 C0.66 0 1.32 0 2 0 C1.34 1.65 0.68 3.3 0 5 C-0.66 5 -1.32 5 -2 5 C-2 5.66 -2 6.32 -2 7 C-2.66 7 -3.32 7 -4 7 C-4.20367187 7.53109375 -4.40734375 8.0621875 -4.6171875 8.609375 C-6.59505609 12.02874104 -9.30326899 14.51337921 -12.125 17.25 C-12.68832031 17.80429687 -13.25164062 18.35859375 -13.83203125 18.9296875 C-15.21686028 20.29104485 -16.60783204 21.64614859 -18 23 C-20 20 -20 20 -19.625 17.8125 C-19.41875 17.214375 -19.2125 16.61625 -19 16 C-17.35 16 -15.7 16 -14 16 C-13.9175 15.38125 -13.835 14.7625 -13.75 14.125 C-13 12 -13 12 -10.9375 10.75 C-10.298125 10.5025 -9.65875 10.255 -9 10 C-9 9.34 -9 8.68 -9 8 C-8.01 7.34 -7.02 6.68 -6 6 C-5.34 5.01 -4.68 4.02 -4 3 C-1.875 2.3125 -1.875 2.3125 0 2 C0 1.34 0 0.68 0 0 Z " fill="#445A69" transform="translate(286,264)"/>
<path d="M0 0 C3.3 0 6.6 0 10 0 C9.67 0.66 9.34 1.32 9 2 C6.36 1.67 3.72 1.34 1 1 C1.33 10.24 1.66 19.48 2 29 C3.65 29.33 5.3 29.66 7 30 C7.33 25.38 7.66 20.76 8 16 C8.99 16 9.98 16 11 16 C11.33 17.98 11.66 19.96 12 22 C11.34 21.34 10.68 20.68 10 20 C9.93941406 20.78246094 9.87882813 21.56492187 9.81640625 22.37109375 C9.73261719 23.38300781 9.64882812 24.39492188 9.5625 25.4375 C9.48128906 26.44683594 9.40007812 27.45617187 9.31640625 28.49609375 C9 31 9 31 8 32 C4.5 32.125 4.5 32.125 1 32 C0 31 0 31 -0.11352539 28.04077148 C-0.10828857 26.74727783 -0.10305176 25.45378418 -0.09765625 24.12109375 C-0.0962413 23.4344313 -0.09482635 22.74776886 -0.09336853 22.04029846 C-0.08775479 19.83932199 -0.07520007 17.63844591 -0.0625 15.4375 C-0.05748676 13.94856917 -0.05292355 12.45963676 -0.04882812 10.97070312 C-0.03778093 7.31376925 -0.02050713 3.65689442 0 0 Z " fill="#5C9497" transform="translate(149,319)"/>
<path d="M0 0 C3.39914975 1.13304992 4.05254451 2.12518475 6 5 C5.649375 5.61875 5.29875 6.2375 4.9375 6.875 C4.628125 7.57625 4.31875 8.2775 4 9 C4.33 9.66 4.66 10.32 5 11 C4.01 11.495 4.01 11.495 3 12 C3 13.65 3 15.3 3 17 C-1.65987191 13.9342948 -2.85485202 11.41342681 -4 6 C-3.01 6 -2.02 6 -1 6 C-1.020625 5.195625 -1.04125 4.39125 -1.0625 3.5625 C-1 1 -1 1 0 0 Z " fill="#134A5A" transform="translate(215,256)"/>
<path d="M0 0 C2.64 0 5.28 0 8 0 C8 0.99 8 1.98 8 3 C5.69 2.34 3.38 1.68 1 1 C1.0721875 1.87140625 1.144375 2.7428125 1.21875 3.640625 C1.82711659 11.44799618 2.1290649 19.170063 2 27 C2.99 27 3.98 27 5 27 C5.33 22.71 5.66 18.42 6 14 C6.33 14 6.66 14 7 14 C7.02693575 16.12493141 7.04636628 18.24995912 7.0625 20.375 C7.07410156 21.55835938 7.08570313 22.74171875 7.09765625 23.9609375 C7 27 7 27 6 29 C4.33388095 29.042721 2.66617115 29.04063832 1 29 C0 28 0 28 -0.11352539 25.31616211 C-0.10828857 24.14835205 -0.10305176 22.98054199 -0.09765625 21.77734375 C-0.09443359 20.51728516 -0.09121094 19.25722656 -0.08789062 17.95898438 C-0.07953403 16.61848891 -0.07106907 15.27799412 -0.0625 13.9375 C-0.0574866 12.59310058 -0.05292342 11.2486994 -0.04882812 9.90429688 C-0.03699488 6.60282059 -0.02050971 3.30143197 0 0 Z " fill="#1A7C7F" transform="translate(150,320)"/>
<path d="M0 0 C6.08285888 2.76493585 11.84770436 6.67369487 16.4375 11.5625 C15.4475 11.5625 14.4575 11.5625 13.4375 11.5625 C13.1075 10.9025 12.7775 10.2425 12.4375 9.5625 C10.11593403 9.15520772 7.7806213 8.81811323 5.4375 8.5625 C5.4375 7.9025 5.4375 7.2425 5.4375 6.5625 C4.7775 6.5625 4.1175 6.5625 3.4375 6.5625 C3.4375 5.9025 3.4375 5.2425 3.4375 4.5625 C2.7775 4.5625 2.1175 4.5625 1.4375 4.5625 C1.1075 5.2225 0.7775 5.8825 0.4375 6.5625 C-2.625 7.1875 -2.625 7.1875 -5.5625 7.5625 C-5.75 4.6875 -5.75 4.6875 -5.5625 1.5625 C-2.5625 -0.4375 -2.5625 -0.4375 0 0 Z " fill="#6EAF8F" transform="translate(240.5625,196.4375)"/>
<path d="M0 0 C0 0.66 0 1.32 0 2 C-0.56589844 2.18175781 -1.13179688 2.36351562 -1.71484375 2.55078125 C-2.44832031 2.80214844 -3.18179687 3.05351562 -3.9375 3.3125 C-4.66839844 3.55613281 -5.39929688 3.79976562 -6.15234375 4.05078125 C-8.35932024 4.91240441 -8.35932024 4.91240441 -9 8 C-10.32303717 8.3721042 -11.65737935 8.70630173 -13 9 C-13.33 9.66 -13.66 10.32 -14 11 C-14.66 11 -15.32 11 -16 11 C-15.91621094 11.556875 -15.83242188 12.11375 -15.74609375 12.6875 C-15.02943416 18.05791108 -15.12517289 22.65383432 -16 28 C-16.66 27.67 -17.32 27.34 -18 27 C-18.13388212 10.16910456 -18.13388212 10.16910456 -13.75 5.0625 C-9.43066256 1.12220646 -5.87195793 -0.33554045 0 0 Z " fill="#569998" transform="translate(287,214)"/>
<path d="M0 0 C-0.66 0.474375 -1.32 0.94875 -2 1.4375 C-4.26771499 4.34300983 -4.14176525 4.57688392 -3.8125 8 C-3.46248019 14.56287141 -7.14688771 19.91752212 -11 25 C-11.99 25.33 -12.98 25.66 -14 26 C-16.6875 24.5625 -16.6875 24.5625 -19 23 C-16.3333581 21.66667905 -14.83319697 22.32897967 -12 23 C-12 22.01 -12 21.02 -12 20 C-11.34 20 -10.68 20 -10 20 C-10 19.01 -10 18.02 -10 17 C-9.34 17 -8.68 17 -8 17 C-7.81824219 15.17662109 -7.81824219 15.17662109 -7.6328125 13.31640625 C-7.46402922 11.73171883 -7.29473184 10.1470861 -7.125 8.5625 C-7.04636719 7.76005859 -6.96773437 6.95761719 -6.88671875 6.13085938 C-6.66154237 4.07829006 -6.33777413 2.03706991 -6 0 C-3.50907189 -1.24546405 -2.58919267 -0.7767578 0 0 Z " fill="#74A78D" transform="translate(230,185)"/>
<path d="M0 0 C0.7425 0.391875 1.485 0.78375 2.25 1.1875 C2.375 4.0625 2.375 4.0625 2.25 7.1875 C0.25 9.1875 0.25 9.1875 -2.25 9.4375 C-4.75 9.1875 -4.75 9.1875 -6.75 7.1875 C-7.125 4.75 -7.125 4.75 -6.75 2.1875 C-4.35473374 -0.56262052 -3.55577952 -1.05057122 0 0 Z " fill="#59A176" transform="translate(234.75,186.8125)"/>
<path d="M0 0 C2.625 0.3125 2.625 0.3125 4.4375 2.3125 C4.829375 2.9725 5.22125 3.6325 5.625 4.3125 C3.75 8.1875 3.75 8.1875 2.625 9.3125 C0.1875 9.5625 0.1875 9.5625 -2.375 9.3125 C-4.375 6.3125 -4.375 6.3125 -4.0625 3.6875 C-3.11366091 0.40969222 -3.11366091 0.40969222 0 0 Z " fill="#61AA90" transform="translate(269.375,209.6875)"/>
<path d="M0 0 C-3 2 -3 2 -5.6875 1.625 C-6.8321875 1.315625 -6.8321875 1.315625 -8 1 C-8 0.34 -8 -0.32 -8 -1 C-15.92 -0.505 -15.92 -0.505 -24 0 C-24 0.66 -24 1.32 -24 2 C-25.32 1.34 -26.64 0.68 -28 0 C-18.85454798 -5.13037553 -9.06631199 -5.34679938 0 0 Z " fill="#80AD7E" transform="translate(264,156)"/>
<path d="M0 0 C0.66 0 1.32 0 2 0 C2 6.93 2 13.86 2 21 C1.01 21.33 0.02 21.66 -1 22 C-0.42415568 19.61435923 0.22227595 17.33317216 1 15 C0.34 15 -0.32 15 -1 15 C-1.33 15.66 -1.66 16.32 -2 17 C-3.24659153 13.37434999 -2.78926902 10.54787577 -2.125 6.8125 C-1.94195312 5.74644531 -1.75890625 4.68039062 -1.5703125 3.58203125 C-1 1 -1 1 0 0 Z " fill="#102942" transform="translate(261,315)"/>
<path d="M0 0 C2.5 0.25 2.5 0.25 4.5 2.25 C3.93181818 7.81818182 3.93181818 7.81818182 2.5 9.25 C0.0625 9.4375 0.0625 9.4375 -2.5 9.25 C-4.5 7.25 -4.5 7.25 -4.75 4.75 C-4.40058445 1.25584452 -3.49415548 0.34941555 0 0 Z " fill="#156363" transform="translate(254.5,254.75)"/>
<path d="M0 0 C1.98 0 3.96 0 6 0 C6.66 2.97 7.32 5.94 8 9 C6.02 9.33 4.04 9.66 2 10 C1.731875 9.401875 1.46375 8.80375 1.1875 8.1875 C0.01506533 6.02775192 -1.19369282 4.64209744 -3 3 C-2.01 2.67 -1.02 2.34 0 2 C0 1.34 0 0.68 0 0 Z " fill="#439E6A" transform="translate(249,192)"/>
<path d="M0 0 C2.26954631 3.40431947 2.36549949 5.16524202 2.625 9.1875 C2.69976562 10.27417969 2.77453125 11.36085938 2.8515625 12.48046875 C2.90054687 13.31191406 2.94953125 14.14335937 3 15 C2.01 15.33 1.02 15.66 0 16 C0 15.34 0 14.68 0 14 C-0.66 14 -1.32 14 -2 14 C-3.60355101 10.49223216 -4.22036864 7.85645121 -4 4 C-3.01 3.67 -2.02 3.34 -1 3 C-0.67 2.01 -0.34 1.02 0 0 Z " fill="#0F283E" transform="translate(275,330)"/>
<path d="M0 0 C2.05394909 2.49804619 2.9647081 3.68237289 3.3125 6.8125 C2.3225 6.8125 1.3325 6.8125 0.3125 6.8125 C-1.39282323 8.75259522 -1.39282323 8.75259522 -2.6875 10.8125 C-3.6775 10.4825 -4.6675 10.1525 -5.6875 9.8125 C-5.6875 6.8125 -5.6875 6.8125 -4.6875 5.8125 C-4.4638932 2.8870356 -4.4638932 2.8870356 -5.6875 0.8125 C-6.0175 0.1525 -6.3475 -0.5075 -6.6875 -1.1875 C-3.42748318 -2.75713773 -2.88603499 -2.34909825 0 0 Z " fill="#21979B" transform="translate(161.6875,323.1875)"/>
<path d="M0 0 C4.42759127 1.35287511 6.67870984 2.95923565 9 7 C9.32049356 10.03197085 9.23809895 12.96423837 9 16 C8.67 16 8.34 16 8 16 C8 13.36 8 10.72 8 8 C6.68 8 5.36 8 4 8 C3.67 9.32 3.34 10.64 3 12 C1.35 12 -0.3 12 -2 12 C-0.68 11.67 0.64 11.34 2 11 C1.67 9.35 1.34 7.7 1 6 C-0.98 6 -2.96 6 -5 6 C-5 5.67 -5 5.34 -5 5 C-3.35 5 -1.7 5 0 5 C0 3.35 0 1.7 0 0 Z " fill="#91A97D" transform="translate(193,321)"/>
<path d="M0 0 C0.33 0.66 0.66 1.32 1 2 C1.66 2.33 2.32 2.66 3 3 C2.67 3.66 2.34 4.32 2 5 C3.65 5.33 5.3 5.66 7 6 C7.33 4.68 7.66 3.36 8 2 C8.556875 2.7115625 8.556875 2.7115625 9.125 3.4375 C11.62646962 5.52205802 13.81593418 5.64621491 17 6 C17 6.33 17 6.66 17 7 C15.35 7 13.7 7 12 7 C12 7.99 12 8.98 12 10 C12.66 10.66 13.32 11.32 14 12 C10.94208098 12.44750034 8.78629795 12.46027197 6.078125 10.875 C2.7945252 8.26982991 1.20695855 6.74505078 0.0625 2.625 C0.0315625 1.325625 0.0315625 1.325625 0 0 Z " fill="#3D4B5F" transform="translate(271,339)"/>
<path d="M0 0 C2.97 0.495 2.97 0.495 6 1 C6 1.66 6 2.32 6 3 C4.9275 3.20625 3.855 3.4125 2.75 3.625 C-1.75190496 5.27569849 -2.6977359 6.90708605 -5 11 C-7.5 13.5 -7.5 13.5 -10 16 C-9.67 13.03 -9.34 10.06 -9 7 C-8.34 7 -7.68 7 -7 7 C-6.525625 6.175 -6.05125 5.35 -5.5625 4.5 C-5.046875 3.675 -4.53125 2.85 -4 2 C-3.01 2 -2.02 2 -1 2 C-0.67 1.34 -0.34 0.68 0 0 Z " fill="#178881" transform="translate(258,220)"/>
<path d="M0 0 C0.33 0 0.66 0 1 0 C1.77734375 2.5703125 1.77734375 2.5703125 2 6 C0.60809431 8.55134279 -0.69230277 10.60290229 -2.4375 12.875 C-2.87126953 13.46796875 -3.30503906 14.0609375 -3.75195312 14.671875 C-4.81914913 16.12607615 -5.90753963 17.5646817 -7 19 C-7.66 18.67 -8.32 18.34 -9 18 C-9.4140625 15.93359375 -9.4140625 15.93359375 -9.625 13.4375 C-9.69976562 12.61121094 -9.77453125 11.78492188 -9.8515625 10.93359375 C-9.90054688 10.29550781 -9.94953125 9.65742188 -10 9 C-9.34 9 -8.68 9 -8 9 C-7.67 10.32 -7.34 11.64 -7 13 C-6.67 11.35 -6.34 9.7 -6 8 C-5.34 8.33 -4.68 8.66 -4 9 C-3.814375 8.0409375 -3.814375 8.0409375 -3.625 7.0625 C-3.41875 6.381875 -3.2125 5.70125 -3 5 C-2.34 4.67 -1.68 4.34 -1 4 C-0.34786708 1.97536745 -0.34786708 1.97536745 0 0 Z " fill="#308781" transform="translate(232,228)"/>
<path d="M0 0 C0.99 0.99 1.98 1.98 3 3 C2.52433594 3.84304688 2.52433594 3.84304688 2.0390625 4.703125 C0.93125475 7.15196317 0.61024601 9.08387855 0.375 11.75 C0.30023438 12.54921875 0.22546875 13.3484375 0.1484375 14.171875 C0.09945312 14.77515625 0.05046875 15.3784375 0 16 C-1.32 16 -2.64 16 -4 16 C-4 12.04 -4 8.08 -4 4 C-2.68 3.67 -1.36 3.34 0 3 C0 2.01 0 1.02 0 0 Z " fill="#162E45" transform="translate(234,342)"/>
<path d="M0 0 C1 1 1 1 1.0625 4.0625 C1.041875 5.031875 1.02125 6.00125 1 7 C-1.3125 8.125 -1.3125 8.125 -4 9 C-4.99 8.34 -5.98 7.68 -7 7 C-7.1875 3.875 -7.1875 3.875 -7 1 C-4.51588385 -0.24205807 -2.74800896 -0.14092354 0 0 Z " fill="#34958C" transform="translate(243,226)"/>
<path d="M0 0 C0 1.65 0 3.3 0 5 C-0.99 5.495 -0.99 5.495 -2 6 C-2 5.01 -2 4.02 -2 3 C-2.66644531 3.0721875 -3.33289063 3.144375 -4.01953125 3.21875 C-10.70510535 3.89198264 -17.2830148 4.11693011 -24 4 C-20.51249773 2.01333826 -17.03125489 1.17355619 -13.125 0.3125 C-11.93132812 0.04050781 -10.73765625 -0.23148438 -9.5078125 -0.51171875 C-6.00961506 -0.9986616 -3.42287802 -0.77983001 0 0 Z " fill="#4E9C95" transform="translate(311,210)"/>
<path d="M0 0 C0.66 0.33 1.32 0.66 2 1 C1.39816251 3.02045442 0.72693904 5.02111039 0 7 C-0.99 7.495 -0.99 7.495 -2 8 C-1.67 8.66 -1.34 9.32 -1 10 C-2.65 9.67 -4.3 9.34 -6 9 C-6.33 13.62 -6.66 18.24 -7 23 C-7.33 23 -7.66 23 -8 23 C-8 16.73 -8 10.46 -8 4 C-5.69 3.34 -3.38 2.68 -1 2 C-0.67 1.34 -0.34 0.68 0 0 Z " fill="#2F5461" transform="translate(263,262)"/>
<path d="M0 0 C0.99 0.33 1.98 0.66 3 1 C3 1.99 3 2.98 3 4 C2.01 4 1.02 4 0 4 C-1.75734451 8.97361654 -3.32584613 13.7415998 -4 19 C-4.99 18.67 -5.98 18.34 -7 18 C-8.16073704 10.53811904 -4.18902831 5.90952207 0 0 Z " fill="#4C9095" transform="translate(234,235)"/>
<path d="M0 0 C0 0.99 0 1.98 0 3 C1.27760233 6.24314437 1.96938234 6.97958823 5 9 C4.67 9.99 4.34 10.98 4 12 C4.99 12.33 5.98 12.66 7 13 C7.6875 15.0625 7.6875 15.0625 8 17 C6.53977837 16.04454634 5.08188532 15.08553322 3.625 14.125 C2.81289062 13.59132812 2.00078125 13.05765625 1.1640625 12.5078125 C-1 11 -1 11 -3 9 C-3.3125 5.5 -3.3125 5.5 -3 2 C-2.01 1.34 -1.02 0.68 0 0 Z " fill="#6EAC88" transform="translate(243,185)"/>
<path d="M0 0 C0.99 0.33 1.98 0.66 3 1 C3.33 3.31 3.66 5.62 4 8 C-1.94 8.33 -7.88 8.66 -14 9 C-14 8.34 -14 7.68 -14 7 C-13.030625 6.87625 -12.06125 6.7525 -11.0625 6.625 C-10.051875 6.41875 -9.04125 6.2125 -8 6 C-7.67 5.34 -7.34 4.68 -7 4 C-4.69 4 -2.38 4 0 4 C0 2.68 0 1.36 0 0 Z " fill="#88A86F" transform="translate(197,330)"/>
<path d="M0 0 C0.33 0 0.66 0 1 0 C1 2.31 1 4.62 1 7 C-1.10353495 7.0810206 -3.20795952 7.13919907 -5.3125 7.1875 C-6.48425781 7.22230469 -7.65601563 7.25710938 -8.86328125 7.29296875 C-12 7 -12 7 -13.91796875 5.48828125 C-14.27503906 4.99714844 -14.63210938 4.50601562 -15 4 C-14.00419922 3.90912109 -14.00419922 3.90912109 -12.98828125 3.81640625 C-6.45091919 3.20136493 -6.45091919 3.20136493 0 2 C0 1.34 0 0.68 0 0 Z " fill="#0F2137" transform="translate(350,330)"/>
<path d="M0 0 C3.3 0.33 6.6 0.66 10 1 C9.67 2.32 9.34 3.64 9 5 C7.20909747 5.19466332 5.41723495 5.38051213 3.625 5.5625 C2.12839844 5.71912109 2.12839844 5.71912109 0.6015625 5.87890625 C-2 6 -2 6 -4 5 C-3.67 4.01 -3.34 3.02 -3 2 C-2.01 2 -1.02 2 0 2 C0 1.34 0 0.68 0 0 Z " fill="#0B2234" transform="translate(281,321)"/>
<path d="M0 0 C-1.65 0.66 -3.3 1.32 -5 2 C-5 2.66 -5 3.32 -5 4 C-2.69 4.33 -0.38 4.66 2 5 C2 5.33 2 5.66 2 6 C0.37509046 6.02698189 -1.24994633 6.04638757 -2.875 6.0625 C-3.77992188 6.07410156 -4.68484375 6.08570313 -5.6171875 6.09765625 C-8 6 -8 6 -10 5 C-10 8.63 -10 12.26 -10 16 C-11.98 16 -13.96 16 -16 16 C-16 15.67 -16 15.34 -16 15 C-14.35 15 -12.7 15 -11 15 C-11.01160156 14.25234375 -11.02320313 13.5046875 -11.03515625 12.734375 C-11.04869141 11.25710938 -11.04869141 11.25710938 -11.0625 9.75 C-11.07410156 8.77546875 -11.08570313 7.8009375 -11.09765625 6.796875 C-11.01195577 4.34241322 -10.70706066 2.33831086 -10 0 C-2.25 -1.125 -2.25 -1.125 0 0 Z " fill="#5C6A77" transform="translate(245,345)"/>
<path d="M0 0 C0.99 0 1.98 0 3 0 C1.35121951 5.70731707 1.35121951 5.70731707 -0.5 7.25 C-2.81564784 9.95158915 -2.77253457 12.70817446 -3.1875 16.1875 C-3.34605469 17.45980469 -3.50460938 18.73210937 -3.66796875 20.04296875 C-3.77753906 21.01878906 -3.88710937 21.99460938 -4 23 C-4.33 23 -4.66 23 -5 23 C-5.31670234 15.30530609 -5.43039388 8.99272598 -2 2 C-1.34 1.34 -0.68 0.68 0 0 Z " fill="#4F958B" transform="translate(186,207)"/>
<path d="M0 0 C0 3.63 0 7.26 0 11 C-0.99 11.33 -1.98 11.66 -3 12 C-5 10 -5 10 -5.3125 6.5625 C-5 3 -5 3 -3.625 1.0625 C-2 0 -2 0 0 0 Z " fill="#62A157" transform="translate(172,321)"/>
<path d="M0 0 C1.32 0.33 2.64 0.66 4 1 C4 1.99 4 2.98 4 4 C3.34 4 2.68 4 2 4 C1.67 5.32 1.34 6.64 1 8 C-6.425 7.01 -6.425 7.01 -14 6 C-14 5.67 -14 5.34 -14 5 C-9.71 4.34 -5.42 3.68 -1 3 C-0.67 2.01 -0.34 1.02 0 0 Z " fill="#58949A" transform="translate(247,250)"/>
<path d="M0 0 C2.43614139 0.96136984 3.73459297 1.5315764 5.046875 3.84765625 C7.3277908 11.03254103 8.45346729 17.09306542 5 24 C5 18.72 5 13.44 5 8 C3.68 7.67 2.36 7.34 1 7 C0.67 4.69 0.34 2.38 0 0 Z " fill="#5F9C99" transform="translate(312,208)"/>
<path d="M0 0 C1.32 0 2.64 0 4 0 C4 0.99 4 1.98 4 3 C3.34 3 2.68 3 2 3 C0.91165825 10.31658317 0.67542038 17.61276728 0.4375 25 C0.39431641 26.25167969 0.35113281 27.50335938 0.30664062 28.79296875 C0.20121983 31.86188523 0.09909658 34.93087389 0 38 C-0.33 38 -0.66 38 -1 38 C-1.02497729 34.0347593 -1.0429894 30.06954995 -1.05493164 26.10424805 C-1.06235104 24.10268542 -1.07506659 22.10114467 -1.08789062 20.09960938 C-1.10499609 13.30874075 -0.93798004 6.72834499 0 0 Z " fill="#4A5D6E" transform="translate(229,322)"/>
<path d="M0 0 C1.98 0.66 3.96 1.32 6 2 C5.814375 2.61875 5.62875 3.2375 5.4375 3.875 C4.76313824 6.04160178 4.76313824 6.04160178 6 8 C5.34 8 4.68 8 4 8 C4 8.66 4 9.32 4 10 C2.68 10.33 1.36 10.66 0 11 C0 7.37 0 3.74 0 0 Z " fill="#099199" transform="translate(152,322)"/>
<path d="M0 0 C0.68384766 0.10441406 1.36769531 0.20882813 2.07226562 0.31640625 C3.73777745 0.57263884 5.40049469 0.84692961 7.0625 1.125 C6.0725 1.455 5.0825 1.785 4.0625 2.125 C4.0625 3.115 4.0625 4.105 4.0625 5.125 C3.4025 5.125 2.7425 5.125 2.0625 5.125 C2.0625 4.465 2.0625 3.805 2.0625 3.125 C0.43835622 2.93022261 -1.18686423 2.74440542 -2.8125 2.5625 C-3.71742188 2.45808594 -4.62234375 2.35367187 -5.5546875 2.24609375 C-7.95403057 1.92825148 -7.95403057 1.92825148 -9.9375 3.125 C-11.61404729 2.84557545 -13.28358154 2.51671753 -14.9375 2.125 C-14.9375 1.795 -14.9375 1.465 -14.9375 1.125 C-9.62872535 -0.73893909 -5.57834592 -0.95253404 0 0 Z " fill="#36606E" transform="translate(234.9375,256.875)"/>
<path d="M0 0 C2.97 0.495 2.97 0.495 6 1 C6 3.64 6 6.28 6 9 C4.68 8.67 3.36 8.34 2 8 C1.67 8.66 1.34 9.32 1 10 C0 9 0 9 -0.09765625 6.93359375 C-0.08605469 6.10988281 -0.07445312 5.28617187 -0.0625 4.4375 C-0.05347656 3.61121094 -0.04445313 2.78492188 -0.03515625 1.93359375 C-0.02355469 1.29550781 -0.01195312 0.65742188 0 0 Z " fill="#0F263D" transform="translate(294,332)"/>
<path d="M0 0 C0.33 0 0.66 0 1 0 C1.22036864 3.85645121 0.60355101 6.49223216 -1 10 C-1.66 9.67 -2.32 9.34 -3 9 C-3.33 10.98 -3.66 12.96 -4 15 C-6.39763185 12.60236815 -6.34280586 11.66726502 -6.625 8.375 C-6.69976562 7.55773437 -6.77453125 6.74046875 -6.8515625 5.8984375 C-6.90054688 5.27195313 -6.94953125 4.64546875 -7 4 C-5.02 4 -3.04 4 -1 4 C-0.67 2.68 -0.34 1.36 0 0 Z " fill="#1B8A84" transform="translate(230,228)"/>
<path d="M0 0 C1.32 0 2.64 0 4 0 C4 0.66 4 1.32 4 2 C2.04072937 3.7143618 0.04119788 5.38405168 -2 7 C-3.98 6.01 -5.96 5.02 -8 4 C-8 3.01 -8 2.02 -8 1 C-5.02161338 0.00720446 -3.09716622 -0.07554064 0 0 Z " fill="#31435D" transform="translate(311,322)"/>
<path d="M0 0 C0.33 0 0.66 0 1 0 C1.10933628 1.39403756 1.18619553 2.79063776 1.25 4.1875 C1.29640625 4.96480469 1.3428125 5.74210938 1.390625 6.54296875 C1 9 1 9 -3 14 C1.29 14.33 5.58 14.66 10 15 C10 15.33 10 15.66 10 16 C4.72 16 -0.56 16 -6 16 C-6 14.68 -6 13.36 -6 12 C-5.195625 11.4225 -4.39125 10.845 -3.5625 10.25 C-0.74225446 7.77368685 -0.59731532 7.27689548 -0.1875 3.75 C-0.125625 2.5125 -0.06375 1.275 0 0 Z " fill="#6C999F" transform="translate(268,242)"/>
<path d="M0 0 C0.66 0.33 1.32 0.66 2 1 C1.54625 1.7425 1.0925 2.485 0.625 3.25 C0.08875 4.1575 -0.4475 5.065 -1 6 C-1.556875 6.8971875 -1.556875 6.8971875 -2.125 7.8125 C-3.45599023 11.13997557 -3.64395906 14.43959062 -4 18 C-5.53125 16.83984375 -5.53125 16.83984375 -7 15 C-7.04671728 11.17502292 -6.2230701 7.61509217 -5 4 C-2.375 1.3125 -2.375 1.3125 0 0 Z " fill="#559895" transform="translate(252,222)"/>
<path d="M0 0 C0.66 0 1.32 0 2 0 C2.33 1.98 2.66 3.96 3 6 C5.31 6.66 7.62 7.32 10 8 C10 7.34 10 6.68 10 6 C11.98 5.67 13.96 5.34 16 5 C13.94704566 8.07943151 13.34265205 8.79293121 10 10 C5.90140754 10.33457898 4.48804095 10.32536063 1 8 C0.29947539 5.336937 0.22255182 2.75964263 0 0 Z " fill="#619B8B" transform="translate(238,214)"/>
<path d="M0 0 C0.66 0.33 1.32 0.66 2 1 C1.3125 3.875 1.3125 3.875 0 7 C-2.5625 8.1875 -2.5625 8.1875 -5 9 C-5.33 9.99 -5.66 10.98 -6 12 C-6.66 11.67 -7.32 11.34 -8 11 C-8 8 -8 8 -6.25 5.95703125 C-5.5075 5.24933594 -4.765 4.54164063 -4 3.8125 C-2.88625 2.73935547 -2.88625 2.73935547 -1.75 1.64453125 C-1.1725 1.10183594 -0.595 0.55914062 0 0 Z " fill="#64A173" transform="translate(219,173)"/>
<path d="M0 0 C1.85776765 3.13498292 2.20140476 5.37471432 2 9 C0.02 9.33 -1.96 9.66 -4 10 C-3.51171875 3.9453125 -3.51171875 3.9453125 -3 2 C-2.01 1.34 -1.02 0.68 0 0 Z " fill="#0F243E" transform="translate(252,330)"/>
<path d="M0 0 C4.54805635 -0.17835515 7.8794254 0.00214565 12 2 C11.01 2.495 11.01 2.495 10 3 C10 4.32 10 5.64 10 7 C10.66 7.33 11.32 7.66 12 8 C12 8.99 12 9.98 12 11 C11.01 10.67 10.02 10.34 9 10 C9 9.34 9 8.68 9 8 C6.03 7.67 3.06 7.34 0 7 C0 6.67 0 6.34 0 6 C2.64 6 5.28 6 8 6 C8 5.01 8 4.02 8 3 C5.36 2.34 2.72 1.68 0 1 C0 0.67 0 0.34 0 0 Z " fill="#768191" transform="translate(282,320)"/>
<path d="M0 0 C0 0.66 0 1.32 0 2 C0.66 2 1.32 2 2 2 C2 3.32 2 4.64 2 6 C-0.8125 6.25 -0.8125 6.25 -4 6 C-5.875 4.125 -5.875 4.125 -7 2 C-7 1.34 -7 0.68 -7 0 C-4.3333581 -1.33332095 -2.83319697 -0.67102033 0 0 Z " fill="#3D4B5E" transform="translate(224,345)"/>
<path d="M0 0 C1.98 0 3.96 0 6 0 C6 1.32 6 2.64 6 4 C5.34 4 4.68 4 4 4 C3.34 5.65 2.68 7.3 2 9 C0.68 8.34 -0.64 7.68 -2 7 C-1.34 4.69 -0.68 2.38 0 0 Z " fill="#3E4958" transform="translate(220,321)"/>
<path d="M0 0 C0.99 1.485 0.99 1.485 2 3 C0.35 3 -1.3 3 -3 3 C-3.33 2.34 -3.66 1.68 -4 1 C-6.32156597 0.59270772 -8.6568787 0.25561323 -11 0 C-10.33131686 3.11332248 -10.33131686 3.11332248 -7.9375 4.1875 C-7.298125 4.455625 -6.65875 4.72375 -6 5 C-8.31 5.66 -10.62 6.32 -13 7 C-12.979375 6.21625 -12.95875 5.4325 -12.9375 4.625 C-12.81315937 2.01885039 -12.81315937 2.01885039 -14 0 C-8.53454326 -2.45945553 -5.4829641 -1.91903743 0 0 Z " fill="#65737E" transform="translate(249,322)"/>
<path d="M0 0 C0.33 0 0.66 0 1 0 C2.25841946 6.74153283 3.26404456 13.13484138 3 20 C1.68 19.34 0.36 18.68 -1 18 C-1.02717692 15.93757383 -1.0464758 13.87504297 -1.0625 11.8125 C-1.07410156 10.66394531 -1.08570313 9.51539063 -1.09765625 8.33203125 C-1.01192832 5.40699414 -0.67849023 2.83683709 0 0 Z " fill="#5C9C9D" transform="translate(218,229)"/>
<path d="M0 0 C0.61875 0.680625 0.61875 0.680625 1.25 1.375 C3.06408095 3.05950374 4.75285627 3.99265971 7 5 C-0.68 7.56 -0.68 7.56 -5 6 C-6.8125 4.4375 -6.8125 4.4375 -8 3 C-5.36 2.67 -2.72 2.34 0 2 C0 1.34 0 0.68 0 0 Z " fill="#58A381" transform="translate(265,202)"/>
<path d="M0 0 C1.15518918 0.90484792 2.29885406 1.8244206 3.4375 2.75 C4.07558594 3.26046875 4.71367187 3.7709375 5.37109375 4.296875 C7.18810554 6.19667629 7.60423197 7.43586908 8 10 C6.68 10.99 5.36 11.98 4 13 C3.71125 11.88625 3.4225 10.7725 3.125 9.625 C2.30758671 5.99708908 2.30758671 5.99708908 0 4 C0 2.68 0 1.36 0 0 Z " fill="#77AE85" transform="translate(284,177)"/>
<path d="M0 0 C0.33 0.66 0.66 1.32 1 2 C0.34 2 -0.32 2 -1 2 C-1 3.32 -1 4.64 -1 6 C-1.99 6 -2.98 6 -4 6 C-4.268125 6.969375 -4.53625 7.93875 -4.8125 8.9375 C-5.204375 9.948125 -5.59625 10.95875 -6 12 C-6.99 12.33 -7.98 12.66 -9 13 C-9.66 12.34 -10.32 11.68 -11 11 C-10.67 10.34 -10.34 9.68 -10 9 C-9.34 9 -8.68 9 -8 9 C-8 8.34 -8 7.68 -8 7 C-7.34 7 -6.68 7 -6 7 C-6 6.34 -6 5.68 -6 5 C-5.34 5 -4.68 5 -4 5 C-4 4.34 -4 3.68 -4 3 C-3.34 3 -2.68 3 -2 3 C-2 2.34 -2 1.68 -2 1 C-1.34 0.67 -0.68 0.34 0 0 Z " fill="#7DAB7A" transform="translate(235,157)"/>
<path d="M0 0 C0.99 0 1.98 0 3 0 C2.67 5.94 2.34 11.88 2 18 C1.34 17.67 0.68 17.34 0 17 C0 11.39 0 5.78 0 0 Z " fill="#0E2645" transform="translate(308,330)"/>
<path d="M0 0 C1.134375 0.020625 2.26875 0.04125 3.4375 0.0625 C3.7675 2.7025 4.0975 5.3425 4.4375 8.0625 C2.4375 6.0625 2.4375 6.0625 1.4375 3.0625 C-0.62652968 3.54955712 -0.62652968 3.54955712 -2.5625 5.0625 C-3.38120185 8.62456661 -3.38120185 8.62456661 -3.5625 12.0625 C-4.2225 11.7325 -4.8825 11.4025 -5.5625 11.0625 C-5.42207123 9.41619672 -5.27500671 7.77045821 -5.125 6.125 C-5.04378906 5.20847656 -4.96257812 4.29195313 -4.87890625 3.34765625 C-4.36077956 -0.39436982 -3.98403999 0.06989544 0 0 Z " fill="#94B28D" transform="translate(170.5625,318.9375)"/>
<path d="M0 0 C0.99 0.33 1.98 0.66 3 1 C3.05410687 2.77049689 3.09284119 4.54146849 3.125 6.3125 C3.14820313 7.29863281 3.17140625 8.28476562 3.1953125 9.30078125 C3 12 3 12 1 15 C0 14 0 14 -0.09765625 10.83984375 C-0.08025391 8.90818359 -0.08025391 8.90818359 -0.0625 6.9375 C-0.05347656 5.64714844 -0.04445312 4.35679687 -0.03515625 3.02734375 C-0.02355469 2.02832031 -0.01195312 1.02929688 0 0 Z " fill="#092A4A" transform="translate(230,324)"/>
<path d="M0 0 C1.125 3.75 1.125 3.75 0 6 C0.99 6.66 1.98 7.32 3 8 C-0.34252724 8.07427838 -2.8035914 8.06546953 -6 7 C-5.67 5.68 -5.34 4.36 -5 3 C-6.98 3 -8.96 3 -11 3 C-9.3125 1.875 -9.3125 1.875 -7 1 C-4.25 1.875 -4.25 1.875 -2 3 C-1.34 2.01 -0.68 1.02 0 0 Z " fill="#7C8593" transform="translate(204,343)"/>
<path d="M0 0 C2.475 0.495 2.475 0.495 5 1 C5 1.66 5 2.32 5 3 C5.66 3 6.32 3 7 3 C7 3.66 7 4.32 7 5 C4 6 4 6 2 6 C2.33 7.32 2.66 8.64 3 10 C2.01 10.66 1.02 11.32 0 12 C0 8.04 0 4.08 0 0 Z " fill="#0A253B" transform="translate(327,330)"/>
<path d="M0 0 C0.99 0 1.98 0 3 0 C3.99437702 2.38650485 4.92305444 4.66336318 5.5 7.1875 C5.9037763 9.23284665 5.9037763 9.23284665 8 11 C7.01 11.33 6.02 11.66 5 12 C1.06153846 7.69230769 1.06153846 7.69230769 0.75 4.1875 C0.8325 3.465625 0.915 2.74375 1 2 C0.34 1.67 -0.32 1.34 -1 1 C-0.67 0.67 -0.34 0.34 0 0 Z " fill="#5C9D92" transform="translate(208,209)"/>
<path d="M0 0 C1.65 0 3.3 0 5 0 C5.66 1.98 6.32 3.96 7 6 C6.01 6.495 6.01 6.495 5 7 C4.01 6.67 3.02 6.34 2 6 C1.01 6.495 1.01 6.495 0 7 C-1.125 2.25 -1.125 2.25 0 0 Z " fill="#0A2940" transform="translate(211,332)"/>
<path d="M0 0 C0.99 0 1.98 0 3 0 C4.6875 2 4.6875 2 6 4 C6.66 3.67 7.32 3.34 8 3 C6.63016497 6.16115776 6.0109362 6.9927092 3 9 C2.01 10.485 2.01 10.485 1 12 C0.34 10.02 -0.32 8.04 -1 6 C0.32 6 1.64 6 3 6 C2.01 4.02 1.02 2.04 0 0 Z " fill="#506576" transform="translate(208,325)"/>
<path d="M0 0 C2.9375 0.8125 2.9375 0.8125 6 2 C6.33 2.99 6.66 3.98 7 5 C7.99 5.33 8.98 5.66 10 6 C6.7 6 3.4 6 0 6 C-1 2 -1 2 0 0 Z " fill="#206771" transform="translate(230,249)"/>
<path d="M0 0 C1.32 0.66 2.64 1.32 4 2 C2.44499019 5.81684226 -0.03595495 8.19195732 -3 11 C-3 9.68 -3 8.36 -3 7 C-3.66 6.67 -4.32 6.34 -5 6 C-4.360625 5.566875 -3.72125 5.13375 -3.0625 4.6875 C-0.73253997 3.08760823 -0.73253997 3.08760823 0 0 Z " fill="#5EA781" transform="translate(276,196)"/>
<path d="M0 0 C0.99 0 1.98 0 3 0 C4.28571429 7.42857143 4.28571429 7.42857143 3 11 C2.01 11 1.02 11 0 11 C0 7.37 0 3.74 0 0 Z " fill="#09868B" transform="translate(152,336)"/>
<path d="M0 0 C1.32 0.33 2.64 0.66 4 1 C2.23925651 6.01134685 0.38264513 8.07823658 -4 11 C-7.1875 11.125 -7.1875 11.125 -10 11 C-10 10.67 -10 10.34 -10 10 C-8.35 10 -6.7 10 -5 10 C-4.67 9.01 -4.34 8.02 -4 7 C-2.68 7 -1.36 7 0 7 C0 4.69 0 2.38 0 0 Z " fill="#475665" transform="translate(296,340)"/>
<path d="M0 0 C0.66 0.33 1.32 0.66 2 1 C0.68 1.99 -0.64 2.98 -2 4 C-1.34 2.68 -0.68 1.36 0 0 Z M-4 4 C-3.34 4 -2.68 4 -2 4 C-2.6875 6.4375 -2.6875 6.4375 -4 9 C-8.0683654 10.55555148 -12.69503828 10.07296545 -17 10 C-17 9.01 -17 8.02 -17 7 C-15.96875 7.20625 -14.9375 7.4125 -13.875 7.625 C-9.8765784 8.01194403 -7.66306243 7.51883076 -4 6 C-4 5.34 -4 4.68 -4 4 Z " fill="#156B72" transform="translate(282,247)"/>
<path d="M0 0 C2.64 0 5.28 0 8 0 C8.33 1.65 8.66 3.3 9 5 C6.03 4.67 3.06 4.34 0 4 C0 2.68 0 1.36 0 0 Z " fill="#0D203A" transform="translate(238,322)"/>
<path d="M0 0 C7.48291572 6.15034169 7.48291572 6.15034169 10 10 C8.68 10.33 7.36 10.66 6 11 C5.566875 10.38125 5.13375 9.7625 4.6875 9.125 C3.00259517 6.7802755 3.00259517 6.7802755 0 5 C-0.1875 2.375 -0.1875 2.375 0 0 Z " fill="#6FAE8D" transform="translate(298,191)"/>
<path d="M0 0 C2.3125 -0.3125 2.3125 -0.3125 5 0 C6.81883009 2.3832946 8 3.95818337 8 7 C8.66 7.33 9.32 7.66 10 8 C8.68 8.33 7.36 8.66 6 9 C6 8.34 6 7.68 6 7 C5.34 7 4.68 7 4 7 C2.375 5 2.375 5 1 3 C1.33 2.67 1.66 2.34 2 2 C1.34 1.34 0.68 0.68 0 0 Z " fill="#4B6B7A" transform="translate(242,259)"/>
<path d="M0 0 C0.66 0.33 1.32 0.66 2 1 C0.01997654 3.27336027 -1.46833309 4.79882874 -4.3125 5.875 C-7.83943542 6.03904351 -10.67251641 5.1091612 -14 4 C-11.66785852 2.79371992 -9.50357861 1.8345262 -7 1 C-6.34 1.33 -5.68 1.66 -5 2 C-5 2.66 -5 3.32 -5 4 C-4.34 4 -3.68 4 -3 4 C-3 3.34 -3 2.68 -3 2 C-2.01 2 -1.02 2 0 2 C0 1.34 0 0.68 0 0 Z " fill="#80AC89" transform="translate(244,180)"/>
<path d="M0 0 C2.6875 1.4375 2.6875 1.4375 5 3 C4.67 3.99 4.34 4.98 4 6 C4.66 6.33 5.32 6.66 6 7 C6 7.66 6 8.32 6 9 C1.7257442 7.4169423 -0.26531794 4.49431596 -3 1 C-2.01 0.67 -1.02 0.34 0 0 Z " fill="#3B4B5C" transform="translate(231,282)"/>
<path d="M0 0 C1.0625 1.8125 1.0625 1.8125 2 4 C1.67 4.99 1.34 5.98 1 7 C0.34 7 -0.32 7 -1 7 C-1.2475 7.763125 -1.495 8.52625 -1.75 9.3125 C-3.10995558 12.2364045 -4.31585826 13.30004356 -7 15 C-6.29445932 11.33118845 -4.72264494 8.29549466 -3 5 C-2.34 5 -1.68 5 -1 5 C-0.67 3.35 -0.34 1.7 0 0 Z " fill="#48898A" transform="translate(315,230)"/>
<path d="M0 0 C0 1.32 0 2.64 0 4 C-6.52307692 4.36923077 -6.52307692 4.36923077 -8.9375 2.5 C-9.4634375 1.7575 -9.4634375 1.7575 -10 1 C-6.61981469 -0.04005702 -3.5219721 -0.08004482 0 0 Z " fill="#0C2036" transform="translate(270,346)"/>
<path d="M0 0 C-0.33 1.98 -0.66 3.96 -1 6 C-3.31 6 -5.62 6 -8 6 C-7.67 5.01 -7.34 4.02 -7 3 C-7.66 2.67 -8.32 2.34 -9 2 C-2.25 0 -2.25 0 0 0 Z " fill="#0C2135" transform="translate(247,344)"/>
<path d="M0 0 C0.33 0 0.66 0 1 0 C0.88648483 1.81325551 0.75887039 3.62563357 0.625 5.4375 C0.55539063 6.44683594 0.48578125 7.45617187 0.4140625 8.49609375 C0.27742187 9.32238281 0.14078125 10.14867187 0 11 C-0.99 11.495 -0.99 11.495 -2 12 C-2.66 10.68 -3.32 9.36 -4 8 C-4.66 8 -5.32 8 -6 8 C-6.33 8.66 -6.66 9.32 -7 10 C-7.66 9.67 -8.32 9.34 -9 9 C-8.34 8.01 -7.68 7.02 -7 6 C-3.375 5.3125 -3.375 5.3125 0 5 C0 3.35 0 1.7 0 0 Z " fill="#5C6B7E" transform="translate(254,334)"/>
<path d="M0 0 C2.5 2.0625 2.5 2.0625 4 4 C2.35 3.67 0.7 3.34 -1 3 C-1 2.34 -1 1.68 -1 1 C-6.94 1.495 -6.94 1.495 -13 2 C-9.20368326 -1.79631674 -4.90587241 -1.32271007 0 0 Z " fill="#6D7585" transform="translate(345,321)"/>
<path d="M0 0 C0.33 0.99 0.66 1.98 1 3 C0.34 3 -0.32 3 -1 3 C-1 3.99 -1 4.98 -1 6 C-1.66 6 -2.32 6 -3 6 C-3 6.99 -3 7.98 -3 9 C-5.31 8.67 -7.62 8.34 -10 8 C-9.401875 7.7525 -8.80375 7.505 -8.1875 7.25 C-5.86706787 6.12019611 -5.86706787 6.12019611 -4.4375 3.875 C-3.963125 3.25625 -3.48875 2.6375 -3 2 C-2.01 2 -1.02 2 0 2 C0 1.34 0 0.68 0 0 Z " fill="#3E986A" transform="translate(221,199)"/>
<path d="M0 0 C1.9375 0.75 1.9375 0.75 4 2 C4.75 4.125 4.75 4.125 5 6 C4.01 6 3.02 6 2 6 C0.29467677 7.94009522 0.29467677 7.94009522 -1 10 C-1.66 9.34 -2.32 8.68 -3 8 C-2.34 8 -1.68 8 -1 8 C-0.67 5.36 -0.34 2.72 0 0 Z " fill="#319A9D" transform="translate(160,324)"/>
<path d="M0 0 C0.33 0 0.66 0 1 0 C1 3.63 1 7.26 1 11 C-5.0546875 11.1953125 -5.0546875 11.1953125 -7 11 C-7.66 10.34 -8.32 9.68 -9 9 C-7.865625 8.87625 -6.73125 8.7525 -5.5625 8.625 C-4.386875 8.41875 -3.21125 8.2125 -2 8 C-0.69951159 5.39902318 -0.43528578 2.86044938 0 0 Z " fill="#172B3F" transform="translate(251,283)"/>
<path d="M0 0 C1.91302307 3.26613695 2.35674661 5.99445248 2.625 9.75 C2.69976562 10.73484375 2.77453125 11.7196875 2.8515625 12.734375 C2.92503906 13.85585937 2.92503906 13.85585937 3 15 C-0.867713 11.132287 -0.867713 11.132287 -1.23046875 8.02734375 C-1.11111111 2.22222222 -1.11111111 2.22222222 0 0 Z " fill="#629F8E" transform="translate(234,209)"/>
<path d="M0 0 C0.66 0.33 1.32 0.66 2 1 C1.67 2.32 1.34 3.64 1 5 C-0.32 5 -1.64 5 -3 5 C-3 5.66 -3 6.32 -3 7 C-4.65 6.67 -6.3 6.34 -8 6 C-7.67 4.68 -7.34 3.36 -7 2 C-7 2.99 -7 3.98 -7 5 C-3.66462511 3.88820837 -2.36292656 2.52588702 0 0 Z " fill="#379472" transform="translate(285,206)"/>
<path d="M0 0 C1.65 0 3.3 0 5 0 C5.33 0.99 5.66 1.98 6 3 C6.66 3.33 7.32 3.66 8 4 C3.98195309 4.84098656 0.98196457 5.05404945 -3 4 C-2.01 3.67 -1.02 3.34 0 3 C0 2.01 0 1.02 0 0 Z " fill="#09203C" transform="translate(283,346)"/>
<path d="M0 0 C-0.33 0.99 -0.66 1.98 -1 3 C-3.31 3.33 -5.62 3.66 -8 4 C-8 3.34 -8 2.68 -8 2 C-8.99 2.33 -9.98 2.66 -11 3 C-11 2.34 -11 1.68 -11 1 C-7.32589215 -0.17571451 -3.83070817 -0.07366746 0 0 Z " fill="#0B1E35" transform="translate(343,322)"/>
<path d="M0 0 C0.66 0 1.32 0 2 0 C1.34 1.65 0.68 3.3 0 5 C-0.66 5 -1.32 5 -2 5 C-2 5.66 -2 6.32 -2 7 C-2.66 7 -3.32 7 -4 7 C-4.33 7.99 -4.66 8.98 -5 10 C-5.66 9.01 -6.32 8.02 -7 7 C-4.53846154 3.18461538 -4.53846154 3.18461538 -1.8125 2.25 C-1.214375 2.1675 -0.61625 2.085 0 2 C0 1.34 0 0.68 0 0 Z " fill="#48666E" transform="translate(286,264)"/>
<path d="M0 0 C0.66 0 1.32 0 2 0 C2 1.98 2 3.96 2 6 C1.01 6.33 0.02 6.66 -1 7 C-1.33 7.66 -1.66 8.32 -2 9 C-2.99 7.35 -3.98 5.7 -5 4 C-4.175 3.525625 -3.35 3.05125 -2.5 2.5625 C-1.2625 1.7890625 -1.2625 1.7890625 0 1 C0 0.67 0 0.34 0 0 Z " fill="#368F91" transform="translate(189,233)"/>
<path d="M0 0 C-0.66 0.66 -1.32 1.32 -2 2 C-2.99 2 -3.98 2 -5 2 C-4.80528889 3.94999129 -4.80528889 3.94999129 -4 6 C-2.0162233 7.28436734 -2.0162233 7.28436734 0 8 C-1.8125 8.625 -1.8125 8.625 -4 9 C-4.99 8.34 -5.98 7.68 -7 7 C-7.1875 3.875 -7.1875 3.875 -7 1 C-4.53721199 -0.231394 -2.7204945 -0.07159196 0 0 Z " fill="#62A6A2" transform="translate(243,226)"/>
<path d="M0 0 C4.23039958 1.74192924 8.1273638 3.53559514 12 6 C11.34 6.66 10.68 7.32 10 8 C9.34 7.67 8.68 7.34 8 7 C8 6.34 8 5.68 8 5 C5.69 4.67 3.38 4.34 1 4 C0.67 2.68 0.34 1.36 0 0 Z " fill="#60A084" transform="translate(245,201)"/>
<path d="M0 0 C0.33 0 0.66 0 1 0 C1.33 2.64 1.66 5.28 2 8 C2.99 8 3.98 8 5 8 C3.57568513 11.06775511 2.09219926 13.21040099 0 16 C0 10.72 0 5.44 0 0 Z " fill="#475A6F" transform="translate(258,330)"/>
<path d="M0 0 C0.66 0 1.32 0 2 0 C2.33 0.99 2.66 1.98 3 3 C4.99665314 4.68538601 4.99665314 4.68538601 7 6 C6.67 6.99 6.34 7.98 6 9 C3 7.3125 3 7.3125 0 5 C-0.375 2.25 -0.375 2.25 0 0 Z " fill="#389272" transform="translate(166,331)"/>
<path d="M0 0 C0.7425 0.391875 1.485 0.78375 2.25 1.1875 C1.92 1.8475 1.59 2.5075 1.25 3.1875 C-0.4 3.1875 -2.05 3.1875 -3.75 3.1875 C-4.08 4.8375 -4.41 6.4875 -4.75 8.1875 C-5.41 7.8575 -6.07 7.5275 -6.75 7.1875 C-7 4.875 -7 4.875 -6.75 2.1875 C-4.35473374 -0.56262052 -3.55577952 -1.05057122 0 0 Z " fill="#7DAD92" transform="translate(234.75,186.8125)"/>
<path d="M0 0 C1.17539996 0.92652701 2.34010577 1.86663387 3.5 2.8125 C4.1496875 3.33457031 4.799375 3.85664063 5.46875 4.39453125 C7 6 7 6 7 9 C3.46399535 7.08864614 1.21027154 5.37357234 -1 2 C-0.67 1.34 -0.34 0.68 0 0 Z " fill="#70A377" transform="translate(272,165)"/>
<path d="M0 0 C2.5 1.375 2.5 1.375 5 3 C5 3.66 5 4.32 5 5 C5.66 5 6.32 5 7 5 C7.33 5.99 7.66 6.98 8 8 C5.69 7.67 3.38 7.34 1 7 C1.33 5.68 1.66 4.36 2 3 C1.01 2.67 0.02 2.34 -1 2 C-0.67 1.34 -0.34 0.68 0 0 Z " fill="#82AF83" transform="translate(264,157)"/>
<path d="M0 0 C0.33 0 0.66 0 1 0 C1.03738281 0.77085937 1.07476562 1.54171875 1.11328125 2.3359375 C1.17902344 3.33882813 1.24476563 4.34171875 1.3125 5.375 C1.37050781 6.37273437 1.42851562 7.37046875 1.48828125 8.3984375 C1.65714844 9.25695312 1.82601563 10.11546875 2 11 C2.99 11.66 3.98 12.32 5 13 C4.34 14.32 3.68 15.64 3 17 C0.65709108 14.51565563 0.02017066 13.22268407 -0.29296875 9.765625 C-0.24076172 8.02539062 -0.24076172 8.02539062 -0.1875 6.25 C-0.16042969 5.07953125 -0.13335937 3.9090625 -0.10546875 2.703125 C-0.07066406 1.81109375 -0.03585937 0.9190625 0 0 Z " fill="#52606E" transform="translate(326,330)"/>
<path d="M0 0 C1.32 0.33 2.64 0.66 4 1 C2.89485234 3.21029533 1.5584876 4.76258871 -0.0625 6.625 C-0.61035156 7.25664062 -1.15820312 7.88828125 -1.72265625 8.5390625 C-2.14417969 9.02117187 -2.56570312 9.50328125 -3 10 C-3.66 9.34 -4.32 8.68 -5 8 C-4.34 6.68 -3.68 5.36 -3 4 C-2.01 4 -1.02 4 0 4 C0 2.68 0 1.36 0 0 Z " fill="#4F6076" transform="translate(211,340)"/>
<path d="M0 0 C1.65 0 3.3 0 5 0 C4.60196439 2.88575819 4.20990931 3.82189513 1.9375 5.75 C1.298125 6.1625 0.65875 6.575 0 7 C-1.125 2.25 -1.125 2.25 0 0 Z " fill="#3D5060" transform="translate(267,280)"/>
<path d="M0 0 C0.66 1.32 1.32 2.64 2 4 C3.98 4 5.96 4 8 4 C7.67 4.99 7.34 5.98 7 7 C4.625 7.125 4.625 7.125 2 7 C0 5 0 5 -0.125 2.375 C-0.08375 1.59125 -0.0425 0.8075 0 0 Z " fill="#679495" transform="translate(250,257)"/>
<path d="M0 0 C0.66 0.33 1.32 0.66 2 1 C2 4.3 2 7.6 2 11 C1.01 11.33 0.02 11.66 -1 12 C-0.67 8.04 -0.34 4.08 0 0 Z " fill="#378384" transform="translate(264,239)"/>
<path d="M0 0 C2.64 0 5.28 0 8 0 C8 0.66 8 1.32 8 2 C3.73383684 3.13764351 0.43513689 4 -4 4 C-4 3.34 -4 2.68 -4 2 C-2.68 2 -1.36 2 0 2 C0 1.34 0 0.68 0 0 Z " fill="#68A28D" transform="translate(286,209)"/>
<path d="M0 0 C1.32 0.99 2.64 1.98 4 3 C3.67 3.99 3.34 4.98 3 6 C1.02 6.33 -0.96 6.66 -3 7 C-3 6.34 -3 5.68 -3 5 C-2.34 5 -1.68 5 -1 5 C-0.67 3.35 -0.34 1.7 0 0 Z " fill="#7DAE9B" transform="translate(308,201)"/>
<path d="M0 0 C5.75 1.625 5.75 1.625 8 5 C6.25 5.75 6.25 5.75 4 6 C1.75 4.1875 1.75 4.1875 0 2 C0 1.34 0 0.68 0 0 Z " fill="#499980" transform="translate(200,203)"/>
<path d="M0 0 C1.98 0.99 1.98 0.99 4 2 C4 2.99 4 3.98 4 5 C4.66 5 5.32 5 6 5 C6 6.98 6 8.96 6 11 C3.46166551 9.73083275 3.10599099 8.58375191 1.875 6.0625 C1.52179688 5.35222656 1.16859375 4.64195312 0.8046875 3.91015625 C0 2 0 2 0 0 Z " fill="#569195" transform="translate(248,241)"/>
<path d="M0 0 C1.98 0.66 3.96 1.32 6 2 C5.67 3.32 5.34 4.64 5 6 C3.02 5.34 1.04 4.68 -1 4 C-0.67 2.68 -0.34 1.36 0 0 Z " fill="#40996E" transform="translate(267,201)"/>
<path d="M0 0 C2.3125 0.1875 2.3125 0.1875 4 1 C-0.39453125 5.00390625 -0.39453125 5.00390625 -2 6 C-2.99 5.67 -3.98 5.34 -5 5 C-2.75 2.4375 -2.75 2.4375 0 0 Z " fill="#455365" transform="translate(263,287)"/>
<path d="M0 0 C0.33 0 0.66 0 1 0 C2.17935653 4.12774787 2.25851048 5.53468113 0.125 9.375 C-0.57625 10.24125 -1.2775 11.1075 -2 12 C-2.33 12 -2.66 12 -3 12 C-3 9.69 -3 7.38 -3 5 C-2.34 4.67 -1.68 4.34 -1 4 C-0.34786708 1.97536745 -0.34786708 1.97536745 0 0 Z " fill="#5B9D9A" transform="translate(232,228)"/>
<path d="M0 0 C0 1.98 0 3.96 0 6 C-1.65 6 -3.3 6 -5 6 C-4.625 3.5625 -4.625 3.5625 -4 1 C-2 0 -2 0 0 0 Z " fill="#4AA785" transform="translate(272,213)"/>
<path d="M0 0 C1.08287842 3.24863525 0.85269793 3.87344094 0 7 C0 8.32 0 9.64 0 11 C-1.65 11 -3.3 11 -5 11 C-4.34 10.01 -3.68 9.02 -3 8 C-2.60986284 6.0103005 -2.26797351 4.00980131 -2 2 C-1.34 2 -0.68 2 0 2 C0 1.34 0 0.68 0 0 Z " fill="#2B3D51" transform="translate(207,339)"/>
<path d="M0 0 C3.0916909 2.52956528 3.90931332 5.22454612 5 9 C3.68 8.67 2.36 8.34 1 8 C0.67 5.36 0.34 2.72 0 0 Z " fill="#5B999C" transform="translate(244,239)"/>
<path d="M0 0 C2 2 2 2 2.25 5.25 C2.00879145 8.8681282 1.31162801 11.63895322 0 15 C-1.125 13.25 -1.125 13.25 -2 11 C-1.35191436 9.65753688 -0.68177416 8.32567199 0 7 C0.0777346 4.66796188 0.08967728 2.33160941 0 0 Z " fill="#78AFA3" transform="translate(220,210)"/>
<path d="M0 0 C0.99 0.99 1.98 1.98 3 3 C1.6875 5 1.6875 5 0 7 C-0.99 7 -1.98 7 -3 7 C-2.38722388 4.03824877 -1.74627478 2.61941217 0 0 Z " fill="#2C9D72" transform="translate(281,204)"/>
<path d="M0 0 C0.33 1.32 0.66 2.64 1 4 C0.01 4.33 -0.98 4.66 -2 5 C-2 6.32 -2 7.64 -2 9 C-1.34 9.33 -0.68 9.66 0 10 C-0.99 10 -1.98 10 -3 10 C-3.75 7.8125 -3.75 7.8125 -4 5 C-2.0625 2.1875 -2.0625 2.1875 0 0 Z " fill="#72AA95" transform="translate(279,203)"/>
<path d="M0 0 C2.4375 0.375 2.4375 0.375 5 1 C5.33 1.66 5.66 2.32 6 3 C1.545 3.495 1.545 3.495 -3 4 C-2.01 2.68 -1.02 1.36 0 0 Z " fill="#7DAA90" transform="translate(292,188)"/>
<path d="M0 0 C2.92879371 0.62759865 5.36095629 1.58622659 8 3 C-0.42857143 4.28571429 -0.42857143 4.28571429 -5 3 C-5 2.67 -5 2.34 -5 2 C-3.35 2 -1.7 2 0 2 C0 1.34 0 0.68 0 0 Z " fill="#404C5D" transform="translate(339,348)"/>
<path d="M0 0 C0.99 0.33 1.98 0.66 3 1 C2.67 3.31 2.34 5.62 2 8 C0.35 8 -1.3 8 -3 8 C-2.01 7.34 -1.02 6.68 0 6 C0.2502157 2.91634129 0.2502157 2.91634129 0 0 Z " fill="#6A6F7A" transform="translate(322,322)"/>
<path d="M0 0 C0 0.66 0 1.32 0 2 C1.32 2.33 2.64 2.66 4 3 C2.35 3.66 0.7 4.32 -1 5 C-1 4.34 -1 3.68 -1 3 C-2.65 2.67 -4.3 2.34 -6 2 C-6 1.34 -6 0.68 -6 0 C-3.50907189 -1.24546405 -2.58919267 -0.7767578 0 0 Z " fill="#4A5A6D" transform="translate(335,324)"/>
<path d="M0 0 C2.475 0.495 2.475 0.495 5 1 C4.67 2.32 4.34 3.64 4 5 C2.68 5 1.36 5 0 5 C0 3.35 0 1.7 0 0 Z " fill="#719356" transform="translate(189,321)"/>
<path d="M0 0 C0 0.33 0 0.66 0 1 C-1.27875 1.144375 -2.5575 1.28875 -3.875 1.4375 C-6.25692894 1.70642746 -7.84452691 1.92226346 -10 3 C-11.67654729 2.72057545 -13.34608154 2.39171753 -15 2 C-15 1.67 -15 1.34 -15 1 C-9.4584498 -0.96263236 -5.79141983 -1.01603857 0 0 Z " fill="#809499" transform="translate(235,257)"/>
<path d="M0 0 C2.5625 0.1875 2.5625 0.1875 4.5625 2.1875 C4.1875 4.3125 4.1875 4.3125 3.5625 6.1875 C3.5625 5.1975 3.5625 4.2075 3.5625 3.1875 C2.2425 3.5175 0.9225 3.8475 -0.4375 4.1875 C-0.7675 3.5275 -1.0975 2.8675 -1.4375 2.1875 C-2.0975 1.8575 -2.7575 1.5275 -3.4375 1.1875 C-2.4375 0.1875 -2.4375 0.1875 0 0 Z " fill="#62979B" transform="translate(254.4375,254.8125)"/>
<path d="M0 0 C4.75 0.875 4.75 0.875 7 2 C6.67 2.99 6.34 3.98 6 5 C4.125 4.75 4.125 4.75 2 4 C0.75 1.9375 0.75 1.9375 0 0 Z " fill="#42A46B" transform="translate(242,188)"/>
<path d="M0 0 C2.475 0.99 2.475 0.99 5 2 C4.01 2.495 4.01 2.495 3 3 C2.67 3.66 2.34 4.32 2 5 C-0.0625 5.625 -0.0625 5.625 -2 6 C-1.125 1.125 -1.125 1.125 0 0 Z " fill="#213B51" transform="translate(261,343)"/>
<path d="M0 0 C0.86625 0.556875 0.86625 0.556875 1.75 1.125 C1.75 2.115 1.75 3.105 1.75 4.125 C0.76 4.455 -0.23 4.785 -1.25 5.125 C-0.92 3.805 -0.59 2.485 -0.25 1.125 C-2.23 1.125 -4.21 1.125 -6.25 1.125 C-2.80384615 -1.09038462 -2.80384615 -1.09038462 0 0 Z " fill="#9AAC92" transform="translate(199.25,344.875)"/>
<path d="M0 0 C0.99 0 1.98 0 3 0 C3.33 0.99 3.66 1.98 4 3 C6.00016466 4.20882096 6.00016466 4.20882096 8 5 C5.69 5.66 3.38 6.32 1 7 C1.020625 6.21625 1.04125 5.4325 1.0625 4.625 C1.18684063 2.01885039 1.18684063 2.01885039 0 0 Z " fill="#566672" transform="translate(235,322)"/>
<path d="M0 0 C0.763125 0.0825 1.52625 0.165 2.3125 0.25 C2.3125 0.91 2.3125 1.57 2.3125 2.25 C0.9925 2.25 -0.3275 2.25 -1.6875 2.25 C-2.0175 3.24 -2.3475 4.23 -2.6875 5.25 C-3.6775 4.92 -4.6675 4.59 -5.6875 4.25 C-3.34903846 0.31153846 -3.34903846 0.31153846 0 0 Z " fill="#687D88" transform="translate(264.6875,259.75)"/>
<path d="M0 0 C0.33 0.99 0.66 1.98 1 3 C-1.97 5.475 -1.97 5.475 -5 8 C-5.33 7.01 -5.66 6.02 -6 5 C-5.195625 4.731875 -4.39125 4.46375 -3.5625 4.1875 C-2.716875 3.795625 -1.87125 3.40375 -1 3 C-0.67 2.01 -0.34 1.02 0 0 Z " fill="#3D6F73" transform="translate(307,243)"/>
<path d="M0 0 C0.99 0.66 1.98 1.32 3 2 C2.3125 3.9375 2.3125 3.9375 1 6 C-1.625 6.75 -1.625 6.75 -4 7 C-3.67 6.34 -3.34 5.68 -3 5 C-2.01 5 -1.02 5 0 5 C0 3.35 0 1.7 0 0 Z " fill="#73A998" transform="translate(260,210)"/>
<path d="M0 0 C-0.61875 0.5775 -1.2375 1.155 -1.875 1.75 C-3.81347053 3.80249821 -4.90014249 5.43366582 -6 8 C-6 5.36 -6 2.72 -6 0 C-3.50907189 -1.24546405 -2.58919267 -0.7767578 0 0 Z " fill="#87AE91" transform="translate(230,185)"/>
<path d="M0 0 C1 3 1 3 0.0625 5.1875 C-0.4634375 6.0846875 -0.4634375 6.0846875 -1 7 C-1.268125 6.38125 -1.53625 5.7625 -1.8125 5.125 C-2.95556848 2.7004767 -2.95556848 2.7004767 -6 1 C-4 0 -4 0 0 0 Z " fill="#89B48E" transform="translate(259,171)"/>
<path d="M0 0 C0.94875 0.350625 1.8975 0.70125 2.875 1.0625 C-0.125 3.0625 -0.125 3.0625 -2.8125 2.6875 C-3.575625 2.48125 -4.33875 2.275 -5.125 2.0625 C-5.125 1.4025 -5.125 0.7425 -5.125 0.0625 C-3.125 -0.9375 -3.125 -0.9375 0 0 Z " fill="#79AB76" transform="translate(261.125,154.9375)"/>
<path d="M0 0 C2.0625 0.4375 2.0625 0.4375 4 1 C4 2.65 4 4.3 4 6 C3.67 5.01 3.34 4.02 3 3 C2.34 3 1.68 3 1 3 C0.67 3.66 0.34 4.32 0 5 C-0.5625 3.0625 -0.5625 3.0625 -1 1 C-0.67 0.67 -0.34 0.34 0 0 Z " fill="#182D43" transform="translate(248,341)"/>
<path d="M0 0 C0.33 0 0.66 0 1 0 C1.33 3.3 1.66 6.6 2 10 C0.68 10.33 -0.64 10.66 -2 11 C-1.34 7.37 -0.68 3.74 0 0 Z " fill="#5A6B7D" transform="translate(293,333)"/>
<path d="M0 0 C1.5 1.125 1.5 1.125 3 3 C3.1875 6.1875 3.1875 6.1875 3 9 C2.34 8.01 1.68 7.02 1 6 C0.34 6 -0.32 6 -1 6 C-0.67 4.02 -0.34 2.04 0 0 Z " fill="#44556D" transform="translate(251,325)"/>
<path d="M0 0 C0.598125 0.350625 1.19625 0.70125 1.8125 1.0625 C0 2.625 0 2.625 -2.1875 4.0625 C-3.1775 3.7325 -4.1675 3.4025 -5.1875 3.0625 C-5.1875 2.0725 -5.1875 1.0825 -5.1875 0.0625 C-2.1875 -0.9375 -2.1875 -0.9375 0 0 Z " fill="#0E2238" transform="translate(308.1875,322.9375)"/>
<path d="M0 0 C2.475 0.495 2.475 0.495 5 1 C5 2.65 5 4.3 5 6 C3.2925002 4.71937515 1.62626404 3.38232443 0 2 C0 1.34 0 0.68 0 0 Z " fill="#4B646E" transform="translate(213,267)"/>
<path d="M0 0 C2.31 0 4.62 0 7 0 C6.67 0.99 6.34 1.98 6 3 C3.69 2.67 1.38 2.34 -1 2 C-0.67 1.34 -0.34 0.68 0 0 Z " fill="#1C4651" transform="translate(267,261)"/>
<path d="M0 0 C0.66 0 1.32 0 2 0 C2.33 2.64 2.66 5.28 3 8 C0 7 0 7 -1 6 C-1.125 3.5 -1.125 3.5 -1 1 C-0.67 0.67 -0.34 0.34 0 0 Z " fill="#557F85" transform="translate(217,250)"/>
<path d="M0 0 C2.97 0.495 2.97 0.495 6 1 C5.67 2.65 5.34 4.3 5 6 C3.31237149 4.3545622 1.6459651 2.68711423 0 1 C0 0.67 0 0.34 0 0 Z " fill="#698B93" transform="translate(199,253)"/>
<path d="M0 0 C1.65 0 3.3 0 5 0 C4.34 1.65 3.68 3.3 3 5 C2.01 4.67 1.02 4.34 0 4 C0 2.68 0 1.36 0 0 Z " fill="#15666F" transform="translate(296,248)"/>
<path d="M0 0 C0.66 0 1.32 0 2 0 C2 2.31 2 4.62 2 7 C2.66 7 3.32 7 4 7 C3.67 7.99 3.34 8.98 3 10 C2.34 9.67 1.68 9.34 1 9 C0.5859375 6.93359375 0.5859375 6.93359375 0.375 4.4375 C0.30023438 3.61121094 0.22546875 2.78492188 0.1484375 1.93359375 C0.09945312 1.29550781 0.05046875 0.65742188 0 0 Z " fill="#5C9B97" transform="translate(222,237)"/>
<path d="M0 0 C0.66 0.33 1.32 0.66 2 1 C1.34 3.31 0.68 5.62 0 8 C-0.66 7.34 -1.32 6.68 -2 6 C-1.44444444 1.44444444 -1.44444444 1.44444444 0 0 Z " fill="#77B49A" transform="translate(267,210)"/>
<path d="M0 0 C0.66 0.33 1.32 0.66 2 1 C1 4 1 4 -1 5 C-2.99960012 5.039992 -5.00047242 5.04346799 -7 5 C-5.68 4.67 -4.36 4.34 -3 4 C-3 3.34 -3 2.68 -3 2 C-2.01 1.34 -1.02 0.68 0 0 Z " fill="#399B67" transform="translate(264,200)"/>
<path d="M0 0 C2.125 0.375 2.125 0.375 4 1 C3.01 2.485 3.01 2.485 2 4 C1.34 4 0.68 4 0 4 C-0.33 4.66 -0.66 5.32 -1 6 C-1.625 4.125 -1.625 4.125 -2 2 C-1.34 1.34 -0.68 0.68 0 0 Z " fill="#6AA987" transform="translate(282,192)"/>
<path d="M0 0 C2 3 2 3 1.625 5.6875 C1.41875 6.450625 1.2125 7.21375 1 8 C0.01 8 -0.98 8 -2 8 C-1.34 5.36 -0.68 2.72 0 0 Z " fill="#559867" transform="translate(259,174)"/>
<path d="M0 0 C1.32 0.33 2.64 0.66 4 1 C3.01 2.485 3.01 2.485 2 4 C-0.625 4.1875 -0.625 4.1875 -3 4 C-2.01 2.68 -1.02 1.36 0 0 Z " fill="#68A271" transform="translate(223,169)"/>
<path d="M0 0 C0.66 0.33 1.32 0.66 2 1 C2 2.32 2 3.64 2 5 C1.34 5 0.68 5 0 5 C-0.33 5.99 -0.66 6.98 -1 8 C-1.93065133 5.39417629 -2.14917407 4.35801776 -1.0625 1.75 C-0.711875 1.1725 -0.36125 0.595 0 0 Z " fill="#06273D" transform="translate(208,339)"/>
<path d="M0 0 C1.5 1.375 1.5 1.375 3 3 C3 3.66 3 4.32 3 5 C2.01 5.33 1.02 5.66 0 6 C-0.66 4.35 -1.32 2.7 -2 1 C-1.34 0.67 -0.68 0.34 0 0 Z " fill="#0D2844" transform="translate(208,326)"/>
<path d="M0 0 C2 1 2 1 4 4 C2.35 4.33 0.7 4.66 -1 5 C-1.33 3.68 -1.66 2.36 -2 1 C-1.34 0.67 -0.68 0.34 0 0 Z " fill="#122C41" transform="translate(229,278)"/>
<path d="M0 0 C0.99 0 1.98 0 3 0 C3 0.99 3 1.98 3 3 C3.66 3.33 4.32 3.66 5 4 C3.35 4.33 1.7 4.66 0 5 C0 3.35 0 1.7 0 0 Z " fill="#1F7D7F" transform="translate(254,247)"/>
<path d="M0 0 C0.33 0.99 0.66 1.98 1 3 C0.01 3.66 -0.98 4.32 -2 5 C-2 4.34 -2 3.68 -2 3 C-2.99 3 -3.98 3 -5 3 C-5 2.34 -5 1.68 -5 1 C-3 0 -3 0 0 0 Z " fill="#2B9371" transform="translate(200,203)"/>
<path d="M0 0 C0.99 0 1.98 0 3 0 C3.33 1.65 3.66 3.3 4 5 C2.68 5.33 1.36 5.66 0 6 C0 4.02 0 2.04 0 0 Z " fill="#3E986A" transform="translate(207,198)"/>
<path d="M0 0 C0.99 0 1.98 0 3 0 C3 0.99 3 1.98 3 3 C3.66 3.33 4.32 3.66 5 4 C4.34 4 3.68 4 3 4 C2.67 4.66 2.34 5.32 2 6 C1.01 4.68 0.02 3.36 -1 2 C-0.67 1.34 -0.34 0.68 0 0 Z " fill="#6AAA89" transform="translate(204,198)"/>
</svg>
